STARTFONT 2.1
COMMENT
COMMENT Converted from OpenType font "GenBasR.ttf" by "otf2bdf 3.0".
COMMENT
FONT -FreeType-Gentium Basic-Medium-R-Normal--17-170-72-72-P-77-ISO10646-1
SIZE 17 72 72
FONTBOUNDINGBOX 25 24 -9 -6
STARTPROPERTIES 19
FOUNDRY "FreeType"
FAMILY_NAME "Gentium Basic"
WEIGHT_NAME "Medium"
SLANT "R"
SETWIDTH_NAME "Normal"
ADD_STYLE_NAME ""
PIXEL_SIZE 17
POINT_SIZE 170
RESOLUTION_X 72
RESOLUTION_Y 72
SPACING "P"
AVERAGE_WIDTH 77
CHARSET_REGISTRY "ISO10646"
CHARSET_ENCODING "1"
FONT_ASCENT 14
FONT_DESCENT 4
COPYRIGHT "Copyright (c) SIL International, 2003-2008."
_OTF_FONTFILE "GenBasR.ttf"
_OTF_PSNAME "GentiumBasic"
ENDPROPERTIES
CHARS 704
STARTCHAR 0020
ENCODING 32
SWIDTH 235 0
DWIDTH 4 0
BBX 0 0 0 0
BITMAP
ENDCHAR
STARTCHAR 0021
ENCODING 33
SWIDTH 294 0
DWIDTH 5 0
BBX 2 12 1 0
BITMAP
40
C0
40
40
40
40
40
40
40
00
40
40
ENDCHAR
STARTCHAR 0022
ENCODING 34
SWIDTH 411 0
DWIDTH 7 0
BBX 5 5 1 7
BITMAP
D8
D8
58
48
48
ENDCHAR
STARTCHAR 0023
ENCODING 35
SWIDTH 470 0
DWIDTH 8 0
BBX 7 9 1 1
BITMAP
14
24
7E
28
48
FC
50
50
90
ENDCHAR
STARTCHAR 0024
ENCODING 36
SWIDTH 470 0
DWIDTH 8 0
BBX 7 12 0 -1
BITMAP
10
38
54
50
70
38
1E
12
92
D4
78
10
ENDCHAR
STARTCHAR 0025
ENCODING 37
SWIDTH 705 0
DWIDTH 12 0
BBX 10 10 1 0
BITMAP
6080
9100
9200
9600
A400
6980
1240
3240
2240
4180
ENDCHAR
STARTCHAR 0026
ENCODING 38
SWIDTH 647 0
DWIDTH 11 0
BBX 10 12 1 0
BITMAP
1C00
2400
2400
2400
2800
33C0
5100
9900
8D00
8600
8700
79C0
ENDCHAR
STARTCHAR 0027
ENCODING 39
SWIDTH 235 0
DWIDTH 4 0
BBX 2 5 1 7
BITMAP
C0
C0
40
40
40
ENDCHAR
STARTCHAR 0028
ENCODING 40
SWIDTH 294 0
DWIDTH 5 0
BBX 3 16 1 -3
BITMAP
20
40
40
80
80
80
80
80
80
80
80
80
80
40
40
20
ENDCHAR
STARTCHAR 0029
ENCODING 41
SWIDTH 294 0
DWIDTH 5 0
BBX 3 16 1 -3
BITMAP
80
40
40
20
20
20
20
20
20
20
20
20
20
40
40
80
ENDCHAR
STARTCHAR 002A
ENCODING 42
SWIDTH 470 0
DWIDTH 8 0
BBX 6 7 1 6
BITMAP
20
A8
EC
30
FC
A4
20
ENDCHAR
STARTCHAR 002B
ENCODING 43
SWIDTH 411 0
DWIDTH 7 0
BBX 6 6 1 2
BITMAP
20
20
20
FC
20
20
ENDCHAR
STARTCHAR 002C
ENCODING 44
SWIDTH 235 0
DWIDTH 4 0
BBX 2 4 1 -3
BITMAP
C0
40
40
80
ENDCHAR
STARTCHAR 002D
ENCODING 45
SWIDTH 352 0
DWIDTH 6 0
BBX 4 1 1 4
BITMAP
F0
ENDCHAR
STARTCHAR 002E
ENCODING 46
SWIDTH 235 0
DWIDTH 4 0
BBX 1 2 2 0
BITMAP
80
80
ENDCHAR
STARTCHAR 002F
ENCODING 47
SWIDTH 470 0
DWIDTH 8 0
BBX 8 16 0 -3
BITMAP
03
02
06
04
04
0C
08
08
10
10
30
20
20
60
40
C0
ENDCHAR
STARTCHAR 0030
ENCODING 48
SWIDTH 470 0
DWIDTH 8 0
BBX 6 10 1 0
BITMAP
38
48
84
84
84
84
84
84
48
70
ENDCHAR
STARTCHAR 0031
ENCODING 49
SWIDTH 470 0
DWIDTH 8 0
BBX 5 10 2 0
BITMAP
20
E0
20
20
20
20
20
20
20
F8
ENDCHAR
STARTCHAR 0032
ENCODING 50
SWIDTH 470 0
DWIDTH 8 0
BBX 5 10 2 0
BITMAP
38
C8
88
08
10
20
20
40
88
F8
ENDCHAR
STARTCHAR 0033
ENCODING 51
SWIDTH 470 0
DWIDTH 8 0
BBX 6 10 1 0
BITMAP
70
88
88
10
30
08
04
04
8C
78
ENDCHAR
STARTCHAR 0034
ENCODING 52
SWIDTH 470 0
DWIDTH 8 0
BBX 6 10 1 0
BITMAP
08
18
28
28
48
88
FC
08
08
3C
ENDCHAR
STARTCHAR 0035
ENCODING 53
SWIDTH 470 0
DWIDTH 8 0
BBX 6 10 1 0
BITMAP
7C
40
40
78
8C
04
04
04
84
78
ENDCHAR
STARTCHAR 0036
ENCODING 54
SWIDTH 470 0
DWIDTH 8 0
BBX 6 10 1 0
BITMAP
18
20
40
80
F8
84
84
84
48
38
ENDCHAR
STARTCHAR 0037
ENCODING 55
SWIDTH 470 0
DWIDTH 8 0
BBX 6 10 1 0
BITMAP
FC
84
08
08
08
10
10
20
20
40
ENDCHAR
STARTCHAR 0038
ENCODING 56
SWIDTH 470 0
DWIDTH 8 0
BBX 6 10 1 0
BITMAP
78
C4
C4
C8
38
CC
84
84
84
78
ENDCHAR
STARTCHAR 0039
ENCODING 57
SWIDTH 470 0
DWIDTH 8 0
BBX 6 10 1 0
BITMAP
38
C8
84
84
84
7C
04
08
10
60
ENDCHAR
STARTCHAR 003A
ENCODING 58
SWIDTH 235 0
DWIDTH 4 0
BBX 1 8 2 0
BITMAP
80
80
00
00
00
00
80
80
ENDCHAR
STARTCHAR 003B
ENCODING 59
SWIDTH 235 0
DWIDTH 4 0
BBX 2 11 1 -3
BITMAP
40
40
00
00
00
00
00
C0
40
40
80
ENDCHAR
STARTCHAR 003C
ENCODING 60
SWIDTH 411 0
DWIDTH 7 0
BBX 6 5 1 2
BITMAP
0C
70
80
70
0C
ENDCHAR
STARTCHAR 003D
ENCODING 61
SWIDTH 411 0
DWIDTH 7 0
BBX 6 3 1 3
BITMAP
FC
00
FC
ENDCHAR
STARTCHAR 003E
ENCODING 62
SWIDTH 411 0
DWIDTH 7 0
BBX 6 5 1 2
BITMAP
C0
38
0C
70
80
ENDCHAR
STARTCHAR 003F
ENCODING 63
SWIDTH 411 0
DWIDTH 7 0
BBX 6 12 1 0
BITMAP
38
44
84
04
04
08
10
20
20
20
20
20
ENDCHAR
STARTCHAR 0040
ENCODING 64
SWIDTH 823 0
DWIDTH 14 0
BBX 12 14 1 -3
BITMAP
0F80
1040
6020
4790
8890
9090
9090
9090
9090
89A0
4EC0
6000
3060
0F80
ENDCHAR
STARTCHAR 0041
ENCODING 65
SWIDTH 588 0
DWIDTH 10 0
BBX 10 10 0 0
BITMAP
0400
0C00
1400
1200
1200
1E00
2100
2100
4180
E3C0
ENDCHAR
STARTCHAR 0042
ENCODING 66
SWIDTH 529 0
DWIDTH 9 0
BBX 7 10 1 0
BITMAP
F8
44
44
44
7C
46
42
42
42
FC
ENDCHAR
STARTCHAR 0043
ENCODING 67
SWIDTH 529 0
DWIDTH 9 0
BBX 7 10 1 0
BITMAP
3E
42
80
80
80
80
80
80
42
3C
ENDCHAR
STARTCHAR 0044
ENCODING 68
SWIDTH 588 0
DWIDTH 10 0
BBX 8 10 1 0
BITMAP
FC
46
41
41
41
41
41
42
42
FC
ENDCHAR
STARTCHAR 0045
ENCODING 69
SWIDTH 470 0
DWIDTH 8 0
BBX 7 10 1 0
BITMAP
FC
44
40
40
7C
40
40
40
42
FE
ENDCHAR
STARTCHAR 0046
ENCODING 70
SWIDTH 470 0
DWIDTH 8 0
BBX 7 10 1 0
BITMAP
FE
44
40
40
78
40
40
40
40
E0
ENDCHAR
STARTCHAR 0047
ENCODING 71
SWIDTH 588 0
DWIDTH 10 0
BBX 9 10 1 0
BITMAP
1E00
6300
8000
8000
8000
8780
8100
8100
6100
3E00
ENDCHAR
STARTCHAR 0048
ENCODING 72
SWIDTH 647 0
DWIDTH 11 0
BBX 9 10 1 0
BITMAP
E380
4100
4100
4100
7F00
4100
4100
4100
4100
E380
ENDCHAR
STARTCHAR 0049
ENCODING 73
SWIDTH 294 0
DWIDTH 5 0
BBX 3 10 1 0
BITMAP
E0
40
40
40
40
40
40
40
40
E0
ENDCHAR
STARTCHAR 004A
ENCODING 74
SWIDTH 294 0
DWIDTH 5 0
BBX 6 13 -2 -3
BITMAP
3C
08
08
08
08
08
08
08
08
08
08
10
E0
ENDCHAR
STARTCHAR 004B
ENCODING 75
SWIDTH 588 0
DWIDTH 10 0
BBX 9 10 1 0
BITMAP
E700
4400
4800
5000
6000
5000
5800
4C00
4600
E380
ENDCHAR
STARTCHAR 004C
ENCODING 76
SWIDTH 470 0
DWIDTH 8 0
BBX 7 10 1 0
BITMAP
E0
40
40
40
40
40
40
40
42
FE
ENDCHAR
STARTCHAR 004D
ENCODING 77
SWIDTH 823 0
DWIDTH 14 0
BBX 12 10 1 0
BITMAP
C070
6060
60E0
70E0
5160
5920
4A20
4E20
4420
E4F0
ENDCHAR
STARTCHAR 004E
ENCODING 78
SWIDTH 647 0
DWIDTH 11 0
BBX 9 10 1 0
BITMAP
C380
6100
6100
5100
4900
4D00
4500
4300
4300
E100
ENDCHAR
STARTCHAR 004F
ENCODING 79
SWIDTH 588 0
DWIDTH 10 0
BBX 8 10 1 0
BITMAP
3C
42
81
81
81
81
81
82
42
3C
ENDCHAR
STARTCHAR 0050
ENCODING 80
SWIDTH 529 0
DWIDTH 9 0
BBX 7 10 1 0
BITMAP
FC
46
42
42
46
78
40
40
40
E0
ENDCHAR
STARTCHAR 0051
ENCODING 81
SWIDTH 588 0
DWIDTH 10 0
BBX 10 12 1 -2
BITMAP
3C00
4200
8100
8100
8100
8100
8100
8200
4200
3C00
0680
03C0
ENDCHAR
STARTCHAR 0052
ENCODING 82
SWIDTH 588 0
DWIDTH 10 0
BBX 9 10 1 0
BITMAP
FC00
4600
4200
4200
4400
7800
4C00
4400
4600
E380
ENDCHAR
STARTCHAR 0053
ENCODING 83
SWIDTH 470 0
DWIDTH 8 0
BBX 6 10 1 0
BITMAP
78
8C
80
C0
70
08
04
84
84
F8
ENDCHAR
STARTCHAR 0054
ENCODING 84
SWIDTH 529 0
DWIDTH 9 0
BBX 9 10 0 0
BITMAP
FF80
8880
0800
0800
0800
0800
0800
0800
0800
1C00
ENDCHAR
STARTCHAR 0055
ENCODING 85
SWIDTH 647 0
DWIDTH 11 0
BBX 9 10 1 0
BITMAP
E380
4100
4100
4100
4100
4100
4100
4100
2200
3C00
ENDCHAR
STARTCHAR 0056
ENCODING 86
SWIDTH 647 0
DWIDTH 11 0
BBX 11 10 0 0
BITMAP
F1E0
2080
2080
3100
1100
1900
0A00
0A00
0E00
0400
ENDCHAR
STARTCHAR 0057
ENCODING 87
SWIDTH 823 0
DWIDTH 14 0
BBX 14 10 0 0
BITMAP
F11C
6308
2310
2390
2490
3490
1450
1860
1860
1820
ENDCHAR
STARTCHAR 0058
ENCODING 88
SWIDTH 588 0
DWIDTH 10 0
BBX 10 10 0 0
BITMAP
F3C0
2100
3300
1A00
0C00
0C00
1200
3100
2180
F3C0
ENDCHAR
STARTCHAR 0059
ENCODING 89
SWIDTH 588 0
DWIDTH 10 0
BBX 9 10 1 0
BITMAP
C380
6100
3200
1600
1C00
0800
0800
0800
0800
1C00
ENDCHAR
STARTCHAR 005A
ENCODING 90
SWIDTH 529 0
DWIDTH 9 0
BBX 8 10 0 0
BITMAP
7F
42
46
04
08
18
10
21
61
FF
ENDCHAR
STARTCHAR 005B
ENCODING 91
SWIDTH 294 0
DWIDTH 5 0
BBX 4 16 1 -3
BITMAP
F0
80
80
80
80
80
80
80
80
80
80
80
80
80
80
F0
ENDCHAR
STARTCHAR 005C
ENCODING 92
SWIDTH 470 0
DWIDTH 8 0
BBX 8 16 0 -3
BITMAP
C0
40
40
20
20
30
10
10
08
08
0C
04
04
06
02
03
ENDCHAR
STARTCHAR 005D
ENCODING 93
SWIDTH 294 0
DWIDTH 5 0
BBX 4 16 0 -3
BITMAP
F0
10
10
10
10
10
10
10
10
10
10
10
10
10
10
F0
ENDCHAR
STARTCHAR 005E
ENCODING 94
SWIDTH 470 0
DWIDTH 8 0
BBX 7 8 1 5
BITMAP
10
30
38
48
48
4C
84
86
ENDCHAR
STARTCHAR 005F
ENCODING 95
SWIDTH 470 0
DWIDTH 8 0
BBX 6 1 1 -2
BITMAP
FC
ENDCHAR
STARTCHAR 0060
ENCODING 96
SWIDTH 294 0
DWIDTH 5 0
BBX 4 3 0 9
BITMAP
C0
60
30
ENDCHAR
STARTCHAR 0061
ENCODING 97
SWIDTH 470 0
DWIDTH 8 0
BBX 7 8 1 0
BITMAP
1C
64
04
1C
64
84
8C
76
ENDCHAR
STARTCHAR 0062
ENCODING 98
SWIDTH 529 0
DWIDTH 9 0
BBX 8 13 0 0
BITMAP
40
C0
40
40
40
4E
73
41
41
41
41
42
3C
ENDCHAR
STARTCHAR 0063
ENCODING 99
SWIDTH 411 0
DWIDTH 7 0
BBX 6 8 1 0
BITMAP
3C
48
80
80
80
80
C4
78
ENDCHAR
STARTCHAR 0064
ENCODING 100
SWIDTH 529 0
DWIDTH 9 0
BBX 8 13 1 0
BITMAP
06
02
02
02
02
3E
42
82
82
82
82
46
3B
ENDCHAR
STARTCHAR 0065
ENCODING 101
SWIDTH 470 0
DWIDTH 8 0
BBX 6 8 1 0
BITMAP
38
44
84
FC
80
80
44
78
ENDCHAR
STARTCHAR 0066
ENCODING 102
SWIDTH 294 0
DWIDTH 5 0
BBX 6 13 1 0
BITMAP
1C
28
40
40
40
F0
40
40
40
40
40
40
F0
ENDCHAR
STARTCHAR 0067
ENCODING 103
SWIDTH 470 0
DWIDTH 8 0
BBX 8 12 0 -4
BITMAP
3F
46
82
82
C4
38
60
3C
C3
81
C2
7C
ENDCHAR
STARTCHAR 0068
ENCODING 104
SWIDTH 529 0
DWIDTH 9 0
BBX 8 13 1 0
BITMAP
40
C0
40
40
40
4E
52
62
42
42
42
42
E7
ENDCHAR
STARTCHAR 0069
ENCODING 105
SWIDTH 294 0
DWIDTH 5 0
BBX 3 11 1 0
BITMAP
40
C0
00
40
C0
40
40
40
40
40
E0
ENDCHAR
STARTCHAR 006A
ENCODING 106
SWIDTH 235 0
DWIDTH 4 0
BBX 5 15 -2 -4
BITMAP
08
18
00
08
18
08
08
08
08
08
08
08
08
10
E0
ENDCHAR
STARTCHAR 006B
ENCODING 107
SWIDTH 529 0
DWIDTH 9 0
BBX 8 13 1 0
BITMAP
40
C0
40
40
40
4E
48
50
60
50
48
4C
E7
ENDCHAR
STARTCHAR 006C
ENCODING 108
SWIDTH 294 0
DWIDTH 5 0
BBX 3 13 1 0
BITMAP
40
C0
40
40
40
40
40
40
40
40
40
40
E0
ENDCHAR
STARTCHAR 006D
ENCODING 109
SWIDTH 705 0
DWIDTH 12 0
BBX 11 8 1 0
BITMAP
DDC0
6640
4440
4440
4440
4440
4440
EEE0
ENDCHAR
STARTCHAR 006E
ENCODING 110
SWIDTH 529 0
DWIDTH 9 0
BBX 8 8 1 0
BITMAP
4E
D2
62
42
42
42
42
E7
ENDCHAR
STARTCHAR 006F
ENCODING 111
SWIDTH 529 0
DWIDTH 9 0
BBX 7 8 1 0
BITMAP
38
44
82
82
82
82
44
38
ENDCHAR
STARTCHAR 0070
ENCODING 112
SWIDTH 529 0
DWIDTH 9 0
BBX 7 12 1 -4
BITMAP
5C
E6
42
42
42
42
44
78
40
40
40
E0
ENDCHAR
STARTCHAR 0071
ENCODING 113
SWIDTH 529 0
DWIDTH 9 0
BBX 8 12 1 -4
BITMAP
3E
42
82
82
82
82
46
3A
02
02
02
07
ENDCHAR
STARTCHAR 0072
ENCODING 114
SWIDTH 411 0
DWIDTH 7 0
BBX 6 8 1 0
BITMAP
DC
68
40
40
40
40
40
E0
ENDCHAR
STARTCHAR 0073
ENCODING 115
SWIDTH 411 0
DWIDTH 7 0
BBX 5 8 1 0
BITMAP
70
88
80
60
18
88
88
F0
ENDCHAR
STARTCHAR 0074
ENCODING 116
SWIDTH 352 0
DWIDTH 6 0
BBX 5 10 1 0
BITMAP
40
40
F8
40
40
40
40
40
40
78
ENDCHAR
STARTCHAR 0075
ENCODING 117
SWIDTH 529 0
DWIDTH 9 0
BBX 9 8 0 0
BITMAP
C300
4100
4100
4100
4100
4100
4300
3D80
ENDCHAR
STARTCHAR 0076
ENCODING 118
SWIDTH 470 0
DWIDTH 8 0
BBX 8 8 0 0
BITMAP
E3
62
22
24
34
14
18
08
ENDCHAR
STARTCHAR 0077
ENCODING 119
SWIDTH 705 0
DWIDTH 12 0
BBX 12 8 0 0
BITMAP
E270
6620
2620
2740
2940
3940
1880
1080
ENDCHAR
STARTCHAR 0078
ENCODING 120
SWIDTH 529 0
DWIDTH 9 0
BBX 8 8 0 0
BITMAP
F7
22
34
18
1C
24
42
E7
ENDCHAR
STARTCHAR 0079
ENCODING 121
SWIDTH 470 0
DWIDTH 8 0
BBX 8 12 0 -4
BITMAP
E7
62
22
24
34
14
18
08
08
10
A0
C0
ENDCHAR
STARTCHAR 007A
ENCODING 122
SWIDTH 470 0
DWIDTH 8 0
BBX 6 8 1 0
BITMAP
FC
88
10
30
20
40
C4
FC
ENDCHAR
STARTCHAR 007B
ENCODING 123
SWIDTH 352 0
DWIDTH 6 0
BBX 4 16 1 -3
BITMAP
30
40
40
40
60
20
20
40
E0
20
20
60
40
40
40
20
ENDCHAR
STARTCHAR 007C
ENCODING 124
SWIDTH 235 0
DWIDTH 4 0
BBX 1 17 2 -3
BITMAP
80
80
80
80
80
80
80
80
80
80
80
80
80
80
80
80
80
ENDCHAR
STARTCHAR 007D
ENCODING 125
SWIDTH 294 0
DWIDTH 5 0
BBX 5 16 0 -3
BITMAP
40
20
20
20
20
20
20
38
30
20
20
20
20
20
20
C0
ENDCHAR
STARTCHAR 007E
ENCODING 126
SWIDTH 470 0
DWIDTH 8 0
BBX 8 2 0 4
BITMAP
39
CE
ENDCHAR
STARTCHAR 00A0
ENCODING 160
SWIDTH 235 0
DWIDTH 4 0
BBX 0 0 0 0
BITMAP
ENDCHAR
STARTCHAR 00A1
ENCODING 161
SWIDTH 294 0
DWIDTH 5 0
BBX 2 13 1 -5
BITMAP
40
40
00
00
40
40
40
40
40
40
40
C0
C0
ENDCHAR
STARTCHAR 00A2
ENCODING 162
SWIDTH 470 0
DWIDTH 8 0
BBX 6 10 1 0
BITMAP
10
1C
74
90
90
90
90
74
38
10
ENDCHAR
STARTCHAR 00A3
ENCODING 163
SWIDTH 470 0
DWIDTH 8 0
BBX 7 11 1 -1
BITMAP
3C
44
44
40
40
F0
40
40
42
86
FC
ENDCHAR
STARTCHAR 00A4
ENCODING 164
SWIDTH 470 0
DWIDTH 8 0
BBX 4 6 2 2
BITMAP
90
F0
90
90
F0
90
ENDCHAR
STARTCHAR 00A5
ENCODING 165
SWIDTH 470 0
DWIDTH 8 0
BBX 9 10 -1 0
BITMAP
E780
2200
1600
1400
0800
3E00
0800
0800
0800
1C00
ENDCHAR
STARTCHAR 00A6
ENCODING 166
SWIDTH 235 0
DWIDTH 4 0
BBX 1 17 2 -3
BITMAP
80
80
80
80
80
80
80
80
00
80
80
80
80
80
80
80
80
ENDCHAR
STARTCHAR 00A7
ENCODING 167
SWIDTH 470 0
DWIDTH 8 0
BBX 6 12 1 0
BITMAP
70
98
80
60
B8
8C
C4
64
18
88
C8
70
ENDCHAR
STARTCHAR 00A8
ENCODING 168
SWIDTH 411 0
DWIDTH 7 0
BBX 5 2 1 9
BITMAP
88
88
ENDCHAR
STARTCHAR 00A9
ENCODING 169
SWIDTH 705 0
DWIDTH 12 0
BBX 10 10 1 0
BITMAP
1E00
7F80
7280
A040
A040
A040
B040
5E80
6180
1E00
ENDCHAR
STARTCHAR 00AA
ENCODING 170
SWIDTH 235 0
DWIDTH 4 0
BBX 4 6 0 5
BITMAP
60
A0
60
A0
F0
F0
ENDCHAR
STARTCHAR 00AB
ENCODING 171
SWIDTH 470 0
DWIDTH 8 0
BBX 6 8 1 0
BITMAP
24
48
48
90
90
48
48
24
ENDCHAR
STARTCHAR 00AC
ENCODING 172
SWIDTH 470 0
DWIDTH 8 0
BBX 7 3 0 2
BITMAP
FE
02
02
ENDCHAR
STARTCHAR 00AD
ENCODING 173
SWIDTH 352 0
DWIDTH 6 0
BBX 4 1 1 4
BITMAP
F0
ENDCHAR
STARTCHAR 00AE
ENCODING 174
SWIDTH 352 0
DWIDTH 6 0
BBX 6 6 0 6
BITMAP
78
84
B4
B4
B4
78
ENDCHAR
STARTCHAR 00AF
ENCODING 175
SWIDTH 470 0
DWIDTH 8 0
BBX 6 1 1 9
BITMAP
FC
ENDCHAR
STARTCHAR 00B0
ENCODING 176
SWIDTH 352 0
DWIDTH 6 0
BBX 4 4 1 6
BITMAP
70
90
90
E0
ENDCHAR
STARTCHAR 00B1
ENCODING 177
SWIDTH 411 0
DWIDTH 7 0
BBX 6 8 1 1
BITMAP
20
20
20
FC
20
20
40
F8
ENDCHAR
STARTCHAR 00B2
ENCODING 178
SWIDTH 352 0
DWIDTH 6 0
BBX 4 7 1 5
BITMAP
70
90
10
20
40
90
F0
ENDCHAR
STARTCHAR 00B3
ENCODING 179
SWIDTH 294 0
DWIDTH 5 0
BBX 4 7 0 5
BITMAP
70
90
10
30
10
90
E0
ENDCHAR
STARTCHAR 00B4
ENCODING 180
SWIDTH 294 0
DWIDTH 5 0
BBX 3 3 2 9
BITMAP
60
40
80
ENDCHAR
STARTCHAR 00B5
ENCODING 181
SWIDTH 529 0
DWIDTH 9 0
BBX 9 12 0 -4
BITMAP
C300
4100
4100
4100
4100
4100
6300
7D80
4000
4000
6000
6000
ENDCHAR
STARTCHAR 00B6
ENCODING 182
SWIDTH 588 0
DWIDTH 10 0
BBX 8 12 1 -2
BITMAP
3F
CA
8A
8A
CA
7A
0A
0A
0A
0A
0A
1F
ENDCHAR
STARTCHAR 00B7
ENCODING 183
SWIDTH 117 0
DWIDTH 2 0
BBX 1 2 1 5
BITMAP
80
80
ENDCHAR
STARTCHAR 00B8
ENCODING 184
SWIDTH 235 0
DWIDTH 4 0
BBX 2 4 1 -4
BITMAP
80
C0
40
80
ENDCHAR
STARTCHAR 00B9
ENCODING 185
SWIDTH 352 0
DWIDTH 6 0
BBX 4 6 0 5
BITMAP
60
A0
20
20
20
70
ENDCHAR
STARTCHAR 00BA
ENCODING 186
SWIDTH 294 0
DWIDTH 5 0
BBX 4 6 0 5
BITMAP
60
90
90
90
60
F0
ENDCHAR
STARTCHAR 00BB
ENCODING 187
SWIDTH 470 0
DWIDTH 8 0
BBX 7 8 1 0
BITMAP
90
48
6C
24
36
6C
48
90
ENDCHAR
STARTCHAR 00BC
ENCODING 188
SWIDTH 588 0
DWIDTH 10 0
BBX 9 10 1 0
BITMAP
C100
4200
4200
4400
4800
A900
1700
2500
2780
4380
ENDCHAR
STARTCHAR 00BD
ENCODING 189
SWIDTH 588 0
DWIDTH 10 0
BBX 8 10 1 0
BITMAP
C1
42
44
44
48
AB
15
22
25
4F
ENDCHAR
STARTCHAR 00BE
ENCODING 190
SWIDTH 588 0
DWIDTH 10 0
BBX 10 11 0 0
BITMAP
7000
5080
2100
1200
1200
E400
0880
0B80
1280
13C0
21C0
ENDCHAR
STARTCHAR 00BF
ENCODING 191
SWIDTH 470 0
DWIDTH 8 0
BBX 6 13 1 -5
BITMAP
20
20
00
20
20
20
40
40
80
80
84
88
70
ENDCHAR
STARTCHAR 00C0
ENCODING 192
SWIDTH 588 0
DWIDTH 10 0
BBX 10 15 0 0
BITMAP
2000
1800
0C00
0000
0000
0400
0C00
1400
1200
1200
1E00
2100
2100
4180
E3C0
ENDCHAR
STARTCHAR 00C1
ENCODING 193
SWIDTH 588 0
DWIDTH 10 0
BBX 10 15 0 0
BITMAP
0200
0700
0C00
1000
0000
0400
0C00
1400
1200
1200
1E00
2100
2100
4180
E3C0
ENDCHAR
STARTCHAR 00C2
ENCODING 194
SWIDTH 588 0
DWIDTH 10 0
BBX 10 15 0 0
BITMAP
0C00
0C00
1200
2100
0000
0400
0C00
1400
1200
1200
1E00
2100
2100
4180
E3C0
ENDCHAR
STARTCHAR 00C3
ENCODING 195
SWIDTH 588 0
DWIDTH 10 0
BBX 10 14 0 0
BITMAP
0A00
1900
2600
0000
0400
0C00
1400
1200
1200
1E00
2100
2100
4180
E3C0
ENDCHAR
STARTCHAR 00C4
ENCODING 196
SWIDTH 588 0
DWIDTH 10 0
BBX 10 13 0 0
BITMAP
2200
2200
0000
0400
0C00
1400
1200
1200
1E00
2100
2100
4180
E3C0
ENDCHAR
STARTCHAR 00C5
ENCODING 197
SWIDTH 588 0
DWIDTH 10 0
BBX 10 15 0 0
BITMAP
0C00
1400
1C00
0000
0000
0400
0C00
1400
1200
1200
1E00
2100
2100
4180
E3C0
ENDCHAR
STARTCHAR 00C6
ENCODING 198
SWIDTH 764 0
DWIDTH 13 0
BBX 12 10 1 0
BITMAP
1FE0
0A20
0A00
1200
1FE0
3200
2200
2200
4210
E7F0
ENDCHAR
STARTCHAR 00C7
ENCODING 199
SWIDTH 529 0
DWIDTH 9 0
BBX 7 14 1 -4
BITMAP
3E
42
80
80
80
80
80
80
42
66
18
18
08
10
ENDCHAR
STARTCHAR 00C8
ENCODING 200
SWIDTH 470 0
DWIDTH 8 0
BBX 7 15 1 0
BITMAP
40
E0
10
08
00
FC
44
40
40
7C
40
40
40
42
FE
ENDCHAR
STARTCHAR 00C9
ENCODING 201
SWIDTH 470 0
DWIDTH 8 0
BBX 7 15 1 0
BITMAP
08
1C
30
00
00
FC
44
40
40
7C
40
40
40
42
FE
ENDCHAR
STARTCHAR 00CA
ENCODING 202
SWIDTH 470 0
DWIDTH 8 0
BBX 7 15 1 0
BITMAP
10
38
48
04
00
FC
44
40
40
7C
40
40
40
42
FE
ENDCHAR
STARTCHAR 00CB
ENCODING 203
SWIDTH 470 0
DWIDTH 8 0
BBX 7 13 1 0
BITMAP
88
88
00
FC
44
40
40
7C
40
40
40
42
FE
ENDCHAR
STARTCHAR 00CC
ENCODING 204
SWIDTH 294 0
DWIDTH 5 0
BBX 4 15 0 0
BITMAP
80
C0
20
10
00
70
20
20
20
20
20
20
20
20
70
ENDCHAR
STARTCHAR 00CD
ENCODING 205
SWIDTH 294 0
DWIDTH 5 0
BBX 4 15 1 0
BITMAP
20
30
40
80
00
E0
40
40
40
40
40
40
40
40
E0
ENDCHAR
STARTCHAR 00CE
ENCODING 206
SWIDTH 294 0
DWIDTH 5 0
BBX 5 15 0 0
BITMAP
20
70
88
00
00
70
20
20
20
20
20
20
20
20
70
ENDCHAR
STARTCHAR 00CF
ENCODING 207
SWIDTH 294 0
DWIDTH 5 0
BBX 5 13 0 0
BITMAP
88
88
00
70
20
20
20
20
20
20
20
20
70
ENDCHAR
STARTCHAR 00D0
ENCODING 208
SWIDTH 588 0
DWIDTH 10 0
BBX 8 10 1 0
BITMAP
FC
46
41
41
F1
41
41
42
42
FC
ENDCHAR
STARTCHAR 00D1
ENCODING 209
SWIDTH 647 0
DWIDTH 11 0
BBX 9 14 1 0
BITMAP
1200
3A00
0400
0000
C380
6100
6100
5100
4900
4D00
4500
4300
4300
E100
ENDCHAR
STARTCHAR 00D2
ENCODING 210
SWIDTH 588 0
DWIDTH 10 0
BBX 8 15 1 0
BITMAP
20
70
08
04
00
3C
42
81
81
81
81
81
82
42
3C
ENDCHAR
STARTCHAR 00D3
ENCODING 211
SWIDTH 588 0
DWIDTH 10 0
BBX 8 15 1 0
BITMAP
04
0E
18
00
00
3C
42
81
81
81
81
81
82
42
3C
ENDCHAR
STARTCHAR 00D4
ENCODING 212
SWIDTH 588 0
DWIDTH 10 0
BBX 8 15 1 0
BITMAP
08
1C
24
42
00
3C
42
81
81
81
81
81
82
42
3C
ENDCHAR
STARTCHAR 00D5
ENCODING 213
SWIDTH 588 0
DWIDTH 10 0
BBX 8 14 1 0
BITMAP
12
32
4C
00
3C
42
81
81
81
81
81
82
42
3C
ENDCHAR
STARTCHAR 00D6
ENCODING 214
SWIDTH 588 0
DWIDTH 10 0
BBX 8 13 1 0
BITMAP
44
44
00
3C
42
81
81
81
81
81
82
42
3C
ENDCHAR
STARTCHAR 00D7
ENCODING 215
SWIDTH 411 0
DWIDTH 7 0
BBX 5 5 1 2
BITMAP
88
50
20
50
88
ENDCHAR
STARTCHAR 00D8
ENCODING 216
SWIDTH 588 0
DWIDTH 10 0
BBX 8 10 1 0
BITMAP
1D
62
83
85
89
91
A1
C2
42
BC
ENDCHAR
STARTCHAR 00D9
ENCODING 217
SWIDTH 647 0
DWIDTH 11 0
BBX 9 15 1 0
BITMAP
2000
3000
0C00
0000
0000
E380
4100
4100
4100
4100
4100
4100
4100
2200
3C00
ENDCHAR
STARTCHAR 00DA
ENCODING 218
SWIDTH 647 0
DWIDTH 11 0
BBX 9 15 1 0
BITMAP
0200
0600
0800
1000
0000
E380
4100
4100
4100
4100
4100
4100
4100
2200
3C00
ENDCHAR
STARTCHAR 00DB
ENCODING 219
SWIDTH 647 0
DWIDTH 11 0
BBX 9 15 1 0
BITMAP
0800
1C00
2200
0000
0000
E380
4100
4100
4100
4100
4100
4100
4100
2200
3C00
ENDCHAR
STARTCHAR 00DC
ENCODING 220
SWIDTH 647 0
DWIDTH 11 0
BBX 9 13 1 0
BITMAP
2200
2200
0000
E380
4100
4100
4100
4100
4100
4100
4100
2200
3C00
ENDCHAR
STARTCHAR 00DD
ENCODING 221
SWIDTH 588 0
DWIDTH 10 0
BBX 9 15 1 0
BITMAP
0400
0E00
1800
0000
0000
C380
6100
3200
1600
1C00
0800
0800
0800
0800
1C00
ENDCHAR
STARTCHAR 00DE
ENCODING 222
SWIDTH 529 0
DWIDTH 9 0
BBX 7 10 1 0
BITMAP
E0
40
7C
46
42
42
42
7C
40
E0
ENDCHAR
STARTCHAR 00DF
ENCODING 223
SWIDTH 588 0
DWIDTH 10 0
BBX 8 13 1 0
BITMAP
1C
26
42
42
44
48
50
58
4E
43
51
51
CE
ENDCHAR
STARTCHAR 00E0
ENCODING 224
SWIDTH 470 0
DWIDTH 8 0
BBX 7 12 1 0
BITMAP
40
20
10
00
1C
64
04
1C
64
84
8C
76
ENDCHAR
STARTCHAR 00E1
ENCODING 225
SWIDTH 470 0
DWIDTH 8 0
BBX 7 12 1 0
BITMAP
08
10
20
00
1C
64
04
1C
64
84
8C
76
ENDCHAR
STARTCHAR 00E2
ENCODING 226
SWIDTH 470 0
DWIDTH 8 0
BBX 7 12 1 0
BITMAP
30
48
88
04
1C
64
04
1C
64
84
8C
76
ENDCHAR
STARTCHAR 00E3
ENCODING 227
SWIDTH 470 0
DWIDTH 8 0
BBX 7 11 1 0
BITMAP
64
98
00
1C
64
04
1C
64
84
8C
76
ENDCHAR
STARTCHAR 00E4
ENCODING 228
SWIDTH 470 0
DWIDTH 8 0
BBX 7 11 1 0
BITMAP
88
88
00
1C
64
04
1C
64
84
8C
76
ENDCHAR
STARTCHAR 00E5
ENCODING 229
SWIDTH 470 0
DWIDTH 8 0
BBX 7 12 1 0
BITMAP
30
50
70
00
1C
64
04
1C
64
84
8C
76
ENDCHAR
STARTCHAR 00E6
ENCODING 230
SWIDTH 705 0
DWIDTH 12 0
BBX 10 8 1 0
BITMAP
3B80
CC40
8840
3FC0
4800
8800
9CC0
E700
ENDCHAR
STARTCHAR 00E7
ENCODING 231
SWIDTH 411 0
DWIDTH 7 0
BBX 6 12 1 -4
BITMAP
3C
48
80
80
80
80
C4
78
20
30
10
20
ENDCHAR
STARTCHAR 00E8
ENCODING 232
SWIDTH 470 0
DWIDTH 8 0
BBX 6 12 1 0
BITMAP
60
20
10
00
38
44
84
FC
80
80
44
78
ENDCHAR
STARTCHAR 00E9
ENCODING 233
SWIDTH 470 0
DWIDTH 8 0
BBX 6 12 1 0
BITMAP
0C
18
20
00
38
44
84
FC
80
80
44
78
ENDCHAR
STARTCHAR 00EA
ENCODING 234
SWIDTH 470 0
DWIDTH 8 0
BBX 6 12 1 0
BITMAP
30
48
84
00
38
44
84
FC
80
80
44
78
ENDCHAR
STARTCHAR 00EB
ENCODING 235
SWIDTH 470 0
DWIDTH 8 0
BBX 6 11 1 0
BITMAP
84
88
00
38
44
84
FC
80
80
44
78
ENDCHAR
STARTCHAR 00EC
ENCODING 236
SWIDTH 294 0
DWIDTH 5 0
BBX 4 12 0 0
BITMAP
C0
40
20
00
20
60
20
20
20
20
20
70
ENDCHAR
STARTCHAR 00ED
ENCODING 237
SWIDTH 294 0
DWIDTH 5 0
BBX 4 12 1 0
BITMAP
30
60
40
00
40
C0
40
40
40
40
40
E0
ENDCHAR
STARTCHAR 00EE
ENCODING 238
SWIDTH 294 0
DWIDTH 5 0
BBX 5 12 0 0
BITMAP
20
50
88
00
20
60
20
20
20
20
20
70
ENDCHAR
STARTCHAR 00EF
ENCODING 239
SWIDTH 294 0
DWIDTH 5 0
BBX 5 11 0 0
BITMAP
88
88
00
20
60
20
20
20
20
20
70
ENDCHAR
STARTCHAR 00F0
ENCODING 240
SWIDTH 470 0
DWIDTH 8 0
BBX 6 12 1 0
BITMAP
68
1C
78
08
34
CC
84
84
84
84
48
70
ENDCHAR
STARTCHAR 00F1
ENCODING 241
SWIDTH 529 0
DWIDTH 9 0
BBX 8 11 1 0
BITMAP
36
4C
00
4E
D2
62
42
42
42
42
E7
ENDCHAR
STARTCHAR 00F2
ENCODING 242
SWIDTH 529 0
DWIDTH 9 0
BBX 7 12 1 0
BITMAP
60
20
10
00
38
44
82
82
82
82
44
38
ENDCHAR
STARTCHAR 00F3
ENCODING 243
SWIDTH 529 0
DWIDTH 9 0
BBX 7 12 1 0
BITMAP
0C
08
10
00
38
44
82
82
82
82
44
38
ENDCHAR
STARTCHAR 00F4
ENCODING 244
SWIDTH 529 0
DWIDTH 9 0
BBX 7 12 1 0
BITMAP
10
28
44
00
38
44
82
82
82
82
44
38
ENDCHAR
STARTCHAR 00F5
ENCODING 245
SWIDTH 529 0
DWIDTH 9 0
BBX 7 11 1 0
BITMAP
34
D8
00
38
44
82
82
82
82
44
38
ENDCHAR
STARTCHAR 00F6
ENCODING 246
SWIDTH 529 0
DWIDTH 9 0
BBX 7 11 1 0
BITMAP
84
84
00
38
44
82
82
82
82
44
38
ENDCHAR
STARTCHAR 00F7
ENCODING 247
SWIDTH 411 0
DWIDTH 7 0
BBX 5 6 1 2
BITMAP
20
20
00
F8
20
20
ENDCHAR
STARTCHAR 00F8
ENCODING 248
SWIDTH 529 0
DWIDTH 9 0
BBX 7 8 1 0
BITMAP
3E
44
8E
92
92
E2
44
F8
ENDCHAR
STARTCHAR 00F9
ENCODING 249
SWIDTH 529 0
DWIDTH 9 0
BBX 9 12 0 0
BITMAP
3000
1800
0800
0000
C300
4100
4100
4100
4100
4100
4300
3D80
ENDCHAR
STARTCHAR 00FA
ENCODING 250
SWIDTH 529 0
DWIDTH 9 0
BBX 9 12 0 0
BITMAP
0600
0400
0800
0000
C300
4100
4100
4100
4100
4100
4300
3D80
ENDCHAR
STARTCHAR 00FB
ENCODING 251
SWIDTH 529 0
DWIDTH 9 0
BBX 9 12 0 0
BITMAP
0800
1400
2200
0000
C300
4100
4100
4100
4100
4100
4300
3D80
ENDCHAR
STARTCHAR 00FC
ENCODING 252
SWIDTH 529 0
DWIDTH 9 0
BBX 9 11 0 0
BITMAP
2200
4200
0000
C300
4100
4100
4100
4100
4100
4300
3D80
ENDCHAR
STARTCHAR 00FD
ENCODING 253
SWIDTH 470 0
DWIDTH 8 0
BBX 8 16 0 -4
BITMAP
06
0C
08
00
E7
62
22
24
34
14
18
08
08
10
A0
C0
ENDCHAR
STARTCHAR 00FE
ENCODING 254
SWIDTH 529 0
DWIDTH 9 0
BBX 7 17 1 -4
BITMAP
40
C0
40
40
40
5C
66
42
42
42
42
64
78
40
40
40
E0
ENDCHAR
STARTCHAR 00FF
ENCODING 255
SWIDTH 470 0
DWIDTH 8 0
BBX 8 15 0 -4
BITMAP
42
42
00
E7
62
22
24
34
14
18
08
08
10
A0
C0
ENDCHAR
STARTCHAR 0100
ENCODING 256
SWIDTH 588 0
DWIDTH 10 0
BBX 10 13 0 0
BITMAP
1F00
2000
0000
0400
0C00
1400
1200
1200
1E00
2100
2100
4180
E3C0
ENDCHAR
STARTCHAR 0101
ENCODING 257
SWIDTH 470 0
DWIDTH 8 0
BBX 7 10 1 0
BITMAP
FC
00
1C
64
04
1C
64
84
8C
76
ENDCHAR
STARTCHAR 0102
ENCODING 258
SWIDTH 588 0
DWIDTH 10 0
BBX 10 15 0 0
BITMAP
2200
2300
1E00
0000
0000
0400
0C00
1400
1200
1200
1E00
2100
2100
4180
E3C0
ENDCHAR
STARTCHAR 0103
ENCODING 259
SWIDTH 470 0
DWIDTH 8 0
BBX 7 12 1 0
BITMAP
84
48
30
00
1C
64
04
1C
64
84
8C
76
ENDCHAR
STARTCHAR 0106
ENCODING 262
SWIDTH 529 0
DWIDTH 9 0
BBX 7 15 1 0
BITMAP
04
0E
18
00
00
3E
42
80
80
80
80
80
80
42
3C
ENDCHAR
STARTCHAR 0107
ENCODING 263
SWIDTH 411 0
DWIDTH 7 0
BBX 6 12 1 0
BITMAP
0C
10
20
00
3C
48
80
80
80
80
C4
78
ENDCHAR
STARTCHAR 0108
ENCODING 264
SWIDTH 529 0
DWIDTH 9 0
BBX 7 15 1 0
BITMAP
08
1C
24
42
00
3E
42
80
80
80
80
80
80
42
3C
ENDCHAR
STARTCHAR 0109
ENCODING 265
SWIDTH 411 0
DWIDTH 7 0
BBX 6 12 1 0
BITMAP
30
48
84
00
3C
48
80
80
80
80
C4
78
ENDCHAR
STARTCHAR 010A
ENCODING 266
SWIDTH 529 0
DWIDTH 9 0
BBX 7 13 1 0
BITMAP
10
10
00
3E
42
80
80
80
80
80
80
42
3C
ENDCHAR
STARTCHAR 010B
ENCODING 267
SWIDTH 411 0
DWIDTH 7 0
BBX 6 11 1 0
BITMAP
20
20
00
3C
48
80
80
80
80
C4
78
ENDCHAR
STARTCHAR 010C
ENCODING 268
SWIDTH 529 0
DWIDTH 9 0
BBX 7 15 1 0
BITMAP
42
24
18
00
00
3E
42
80
80
80
80
80
80
42
3C
ENDCHAR
STARTCHAR 010D
ENCODING 269
SWIDTH 411 0
DWIDTH 7 0
BBX 6 12 1 0
BITMAP
84
48
30
00
3C
48
80
80
80
80
C4
78
ENDCHAR
STARTCHAR 010E
ENCODING 270
SWIDTH 588 0
DWIDTH 10 0
BBX 8 15 1 0
BITMAP
44
2C
38
00
00
FC
46
41
41
41
41
41
42
42
FC
ENDCHAR
STARTCHAR 0110
ENCODING 272
SWIDTH 588 0
DWIDTH 10 0
BBX 8 10 1 0
BITMAP
FC
46
41
41
F1
41
41
42
42
FC
ENDCHAR
STARTCHAR 0111
ENCODING 273
SWIDTH 529 0
DWIDTH 9 0
BBX 8 13 1 0
BITMAP
06
02
02
1F
02
3E
42
82
82
82
82
46
3B
ENDCHAR
STARTCHAR 0112
ENCODING 274
SWIDTH 470 0
DWIDTH 8 0
BBX 7 13 1 0
BITMAP
7C
80
00
FC
44
40
40
7C
40
40
40
42
FE
ENDCHAR
STARTCHAR 0113
ENCODING 275
SWIDTH 470 0
DWIDTH 8 0
BBX 6 10 1 0
BITMAP
7C
00
38
44
84
FC
80
80
44
78
ENDCHAR
STARTCHAR 0114
ENCODING 276
SWIDTH 470 0
DWIDTH 8 0
BBX 7 15 1 0
BITMAP
84
44
78
00
00
FC
44
40
40
7C
40
40
40
42
FE
ENDCHAR
STARTCHAR 0115
ENCODING 277
SWIDTH 470 0
DWIDTH 8 0
BBX 6 12 1 0
BITMAP
84
48
38
00
38
44
84
FC
80
80
44
78
ENDCHAR
STARTCHAR 0116
ENCODING 278
SWIDTH 470 0
DWIDTH 8 0
BBX 7 13 1 0
BITMAP
20
20
00
FC
44
40
40
7C
40
40
40
42
FE
ENDCHAR
STARTCHAR 0117
ENCODING 279
SWIDTH 470 0
DWIDTH 8 0
BBX 6 11 1 0
BITMAP
20
20
00
38
44
84
FC
80
80
44
78
ENDCHAR
STARTCHAR 011A
ENCODING 282
SWIDTH 470 0
DWIDTH 8 0
BBX 7 15 1 0
BITMAP
84
48
30
00
00
FC
44
40
40
7C
40
40
40
42
FE
ENDCHAR
STARTCHAR 011B
ENCODING 283
SWIDTH 470 0
DWIDTH 8 0
BBX 6 12 1 0
BITMAP
44
28
30
00
38
44
84
FC
80
80
44
78
ENDCHAR
STARTCHAR 011C
ENCODING 284
SWIDTH 588 0
DWIDTH 10 0
BBX 9 15 1 0
BITMAP
0800
1C00
2600
0000
0000
1E00
6300
8000
8000
8000
8780
8100
8100
6100
3E00
ENDCHAR
STARTCHAR 011D
ENCODING 285
SWIDTH 470 0
DWIDTH 8 0
BBX 8 16 0 -4
BITMAP
18
24
42
00
3F
46
82
82
C4
38
60
3C
C3
81
C2
7C
ENDCHAR
STARTCHAR 011E
ENCODING 286
SWIDTH 588 0
DWIDTH 10 0
BBX 9 15 1 0
BITMAP
4200
2200
1C00
0000
0000
1E00
6300
8000
8000
8000
8780
8100
8100
6100
3E00
ENDCHAR
STARTCHAR 011F
ENCODING 287
SWIDTH 470 0
DWIDTH 8 0
BBX 8 16 0 -4
BITMAP
42
24
1C
00
3F
46
82
82
C4
38
60
3C
C3
81
C2
7C
ENDCHAR
STARTCHAR 0120
ENCODING 288
SWIDTH 588 0
DWIDTH 10 0
BBX 9 13 1 0
BITMAP
1000
1000
0000
1E00
6300
8000
8000
8000
8780
8100
8100
6100
3E00
ENDCHAR
STARTCHAR 0121
ENCODING 289
SWIDTH 470 0
DWIDTH 8 0
BBX 8 15 0 -4
BITMAP
10
10
00
3F
46
82
82
C4
38
60
3C
C3
81
C2
7C
ENDCHAR
STARTCHAR 0124
ENCODING 292
SWIDTH 647 0
DWIDTH 11 0
BBX 9 15 1 0
BITMAP
0800
1C00
2200
0000
0000
E380
4100
4100
4100
7F00
4100
4100
4100
4100
E380
ENDCHAR
STARTCHAR 0125
ENCODING 293
SWIDTH 529 0
DWIDTH 9 0
BBX 8 17 1 0
BITMAP
10
38
64
00
40
C0
40
40
40
4E
52
62
42
42
42
42
E7
ENDCHAR
STARTCHAR 0128
ENCODING 296
SWIDTH 294 0
DWIDTH 5 0
BBX 5 14 0 0
BITMAP
48
E8
10
00
70
20
20
20
20
20
20
20
20
70
ENDCHAR
STARTCHAR 0129
ENCODING 297
SWIDTH 294 0
DWIDTH 5 0
BBX 5 11 0 0
BITMAP
E8
B0
00
20
60
20
20
20
20
20
70
ENDCHAR
STARTCHAR 012A
ENCODING 298
SWIDTH 294 0
DWIDTH 5 0
BBX 5 13 0 0
BITMAP
78
80
00
70
20
20
20
20
20
20
20
20
70
ENDCHAR
STARTCHAR 012B
ENCODING 299
SWIDTH 294 0
DWIDTH 5 0
BBX 5 10 0 0
BITMAP
F8
00
20
60
20
20
20
20
20
70
ENDCHAR
STARTCHAR 012C
ENCODING 300
SWIDTH 294 0
DWIDTH 5 0
BBX 5 15 0 0
BITMAP
88
88
70
00
00
70
20
20
20
20
20
20
20
20
70
ENDCHAR
STARTCHAR 012D
ENCODING 301
SWIDTH 294 0
DWIDTH 5 0
BBX 5 12 0 0
BITMAP
88
88
70
00
20
60
20
20
20
20
20
70
ENDCHAR
STARTCHAR 0130
ENCODING 304
SWIDTH 294 0
DWIDTH 5 0
BBX 3 13 1 0
BITMAP
80
80
00
E0
40
40
40
40
40
40
40
40
E0
ENDCHAR
STARTCHAR 0131
ENCODING 305
SWIDTH 294 0
DWIDTH 5 0
BBX 3 8 1 0
BITMAP
40
C0
40
40
40
40
40
E0
ENDCHAR
STARTCHAR 0132
ENCODING 306
SWIDTH 588 0
DWIDTH 10 0
BBX 8 13 1 -3
BITMAP
EF
42
42
42
42
42
42
42
42
E2
02
04
38
ENDCHAR
STARTCHAR 0133
ENCODING 307
SWIDTH 529 0
DWIDTH 9 0
BBX 7 15 1 -4
BITMAP
46
C4
00
46
CA
42
42
42
42
42
E2
02
04
04
38
ENDCHAR
STARTCHAR 0139
ENCODING 313
SWIDTH 470 0
DWIDTH 8 0
BBX 7 15 1 0
BITMAP
08
1C
20
40
00
E0
40
40
40
40
40
40
40
42
FE
ENDCHAR
STARTCHAR 013A
ENCODING 314
SWIDTH 294 0
DWIDTH 5 0
BBX 4 17 1 0
BITMAP
30
60
80
00
40
C0
40
40
40
40
40
40
40
40
40
40
E0
ENDCHAR
STARTCHAR 0141
ENCODING 321
SWIDTH 470 0
DWIDTH 8 0
BBX 7 10 1 0
BITMAP
E0
40
40
58
60
C0
40
40
42
FE
ENDCHAR
STARTCHAR 0142
ENCODING 322
SWIDTH 294 0
DWIDTH 5 0
BBX 3 13 1 0
BITMAP
40
C0
40
40
40
60
40
C0
40
40
40
40
E0
ENDCHAR
STARTCHAR 0143
ENCODING 323
SWIDTH 647 0
DWIDTH 11 0
BBX 9 15 1 0
BITMAP
0200
0600
0800
1000
0000
C380
6100
6100
5100
4900
4D00
4500
4300
4300
E100
ENDCHAR
STARTCHAR 0144
ENCODING 324
SWIDTH 529 0
DWIDTH 9 0
BBX 8 12 1 0
BITMAP
04
08
10
00
4E
D2
62
42
42
42
42
E7
ENDCHAR
STARTCHAR 0147
ENCODING 327
SWIDTH 647 0
DWIDTH 11 0
BBX 9 15 1 0
BITMAP
4200
3600
1C00
0000
0000
C380
6100
6100
5100
4900
4D00
4500
4300
4300
E100
ENDCHAR
STARTCHAR 0148
ENCODING 328
SWIDTH 529 0
DWIDTH 9 0
BBX 8 12 1 0
BITMAP
44
28
18
00
4E
D2
62
42
42
42
42
E7
ENDCHAR
STARTCHAR 014A
ENCODING 330
SWIDTH 588 0
DWIDTH 10 0
BBX 8 13 1 -3
BITMAP
CE
51
61
41
41
41
41
41
41
E1
01
22
3C
ENDCHAR
STARTCHAR 014B
ENCODING 331
SWIDTH 529 0
DWIDTH 9 0
BBX 7 12 1 -4
BITMAP
4E
F2
62
42
42
42
42
E2
02
02
24
38
ENDCHAR
STARTCHAR 014C
ENCODING 332
SWIDTH 588 0
DWIDTH 10 0
BBX 8 13 1 0
BITMAP
3E
40
00
3C
42
81
81
81
81
81
82
42
3C
ENDCHAR
STARTCHAR 014D
ENCODING 333
SWIDTH 529 0
DWIDTH 9 0
BBX 7 10 1 0
BITMAP
7C
00
38
44
82
82
82
82
44
38
ENDCHAR
STARTCHAR 014E
ENCODING 334
SWIDTH 588 0
DWIDTH 10 0
BBX 8 15 1 0
BITMAP
42
44
3C
00
00
3C
42
81
81
81
81
81
82
42
3C
ENDCHAR
STARTCHAR 014F
ENCODING 335
SWIDTH 529 0
DWIDTH 9 0
BBX 7 12 1 0
BITMAP
84
44
38
00
38
44
82
82
82
82
44
38
ENDCHAR
STARTCHAR 0150
ENCODING 336
SWIDTH 588 0
DWIDTH 10 0
BBX 8 15 1 0
BITMAP
0A
12
24
00
00
3C
42
81
81
81
81
81
82
42
3C
ENDCHAR
STARTCHAR 0151
ENCODING 337
SWIDTH 529 0
DWIDTH 9 0
BBX 7 12 1 0
BITMAP
16
24
28
00
38
44
82
82
82
82
44
38
ENDCHAR
STARTCHAR 0152
ENCODING 338
SWIDTH 823 0
DWIDTH 14 0
BBX 12 10 1 0
BITMAP
3FE0
4220
8200
8200
83C0
8200
8200
8200
4210
3FE0
ENDCHAR
STARTCHAR 0153
ENCODING 339
SWIDTH 823 0
DWIDTH 14 0
BBX 12 8 1 0
BITMAP
3CE0
4510
8210
83F0
8200
8200
4710
39E0
ENDCHAR
STARTCHAR 0154
ENCODING 340
SWIDTH 588 0
DWIDTH 10 0
BBX 9 15 1 0
BITMAP
0800
0C00
3000
0000
0000
FC00
4600
4200
4200
4400
7800
4C00
4400
4600
E380
ENDCHAR
STARTCHAR 0155
ENCODING 341
SWIDTH 411 0
DWIDTH 7 0
BBX 6 12 1 0
BITMAP
08
10
20
00
DC
68
40
40
40
40
40
E0
ENDCHAR
STARTCHAR 0158
ENCODING 344
SWIDTH 588 0
DWIDTH 10 0
BBX 9 15 1 0
BITMAP
8400
6800
3000
0000
0000
FC00
4600
4200
4200
4400
7800
4C00
4400
4600
E380
ENDCHAR
STARTCHAR 0159
ENCODING 345
SWIDTH 411 0
DWIDTH 7 0
BBX 6 12 1 0
BITMAP
88
50
30
00
DC
68
40
40
40
40
40
E0
ENDCHAR
STARTCHAR 015A
ENCODING 346
SWIDTH 470 0
DWIDTH 8 0
BBX 6 15 1 0
BITMAP
08
1C
30
00
00
78
8C
80
C0
70
08
04
84
84
F8
ENDCHAR
STARTCHAR 015B
ENCODING 347
SWIDTH 411 0
DWIDTH 7 0
BBX 5 12 1 0
BITMAP
18
30
40
00
70
88
80
60
18
88
88
F0
ENDCHAR
STARTCHAR 015C
ENCODING 348
SWIDTH 470 0
DWIDTH 8 0
BBX 6 15 1 0
BITMAP
10
38
48
04
00
78
8C
80
C0
70
08
04
84
84
F8
ENDCHAR
STARTCHAR 015D
ENCODING 349
SWIDTH 411 0
DWIDTH 7 0
BBX 5 12 1 0
BITMAP
60
50
88
00
70
88
80
60
18
88
88
F0
ENDCHAR
STARTCHAR 0160
ENCODING 352
SWIDTH 470 0
DWIDTH 8 0
BBX 6 15 1 0
BITMAP
84
48
30
00
00
78
8C
80
C0
70
08
04
84
84
F8
ENDCHAR
STARTCHAR 0161
ENCODING 353
SWIDTH 411 0
DWIDTH 7 0
BBX 5 12 1 0
BITMAP
88
50
60
00
70
88
80
60
18
88
88
F0
ENDCHAR
STARTCHAR 0164
ENCODING 356
SWIDTH 529 0
DWIDTH 9 0
BBX 9 15 0 0
BITMAP
4200
3600
1C00
0000
0000
FF80
8880
0800
0800
0800
0800
0800
0800
0800
1C00
ENDCHAR
STARTCHAR 0168
ENCODING 360
SWIDTH 647 0
DWIDTH 11 0
BBX 9 14 1 0
BITMAP
1200
3A00
0400
0000
E380
4100
4100
4100
4100
4100
4100
4100
2200
3C00
ENDCHAR
STARTCHAR 0169
ENCODING 361
SWIDTH 529 0
DWIDTH 9 0
BBX 9 11 0 0
BITMAP
1A00
6C00
0000
C300
4100
4100
4100
4100
4100
4300
3D80
ENDCHAR
STARTCHAR 016A
ENCODING 362
SWIDTH 647 0
DWIDTH 11 0
BBX 9 13 1 0
BITMAP
3E00
0100
0000
E380
4100
4100
4100
4100
4100
4100
4100
2200
3C00
ENDCHAR
STARTCHAR 016B
ENCODING 363
SWIDTH 529 0
DWIDTH 9 0
BBX 9 10 0 0
BITMAP
3E00
0000
C300
4100
4100
4100
4100
4100
4300
3D80
ENDCHAR
STARTCHAR 016C
ENCODING 364
SWIDTH 647 0
DWIDTH 11 0
BBX 9 15 1 0
BITMAP
4200
2200
1C00
0000
0000
E380
4100
4100
4100
4100
4100
4100
4100
2200
3C00
ENDCHAR
STARTCHAR 016D
ENCODING 365
SWIDTH 529 0
DWIDTH 9 0
BBX 9 12 0 0
BITMAP
4200
2200
1C00
0000
C300
4100
4100
4100
4100
4100
4300
3D80
ENDCHAR
STARTCHAR 016E
ENCODING 366
SWIDTH 647 0
DWIDTH 11 0
BBX 9 15 1 0
BITMAP
0800
1400
1C00
0000
0000
E380
4100
4100
4100
4100
4100
4100
4100
2200
3C00
ENDCHAR
STARTCHAR 016F
ENCODING 367
SWIDTH 529 0
DWIDTH 9 0
BBX 9 12 0 0
BITMAP
1C00
1400
1800
0000
C300
4100
4100
4100
4100
4100
4300
3D80
ENDCHAR
STARTCHAR 0170
ENCODING 368
SWIDTH 647 0
DWIDTH 11 0
BBX 9 15 1 0
BITMAP
0900
0A00
1400
0000
0000
E380
4100
4100
4100
4100
4100
4100
4100
2200
3C00
ENDCHAR
STARTCHAR 0171
ENCODING 369
SWIDTH 529 0
DWIDTH 9 0
BBX 9 12 0 0
BITMAP
0B00
1200
1400
0000
C300
4100
4100
4100
4100
4100
4300
3D80
ENDCHAR
STARTCHAR 0174
ENCODING 372
SWIDTH 823 0
DWIDTH 14 0
BBX 14 15 0 0
BITMAP
0100
0380
0480
0040
0000
F11C
6308
2310
2390
2490
3490
1450
1860
1860
1820
ENDCHAR
STARTCHAR 0175
ENCODING 373
SWIDTH 705 0
DWIDTH 12 0
BBX 12 12 0 0
BITMAP
0600
0900
1080
0000
E270
6620
2620
2740
2940
3940
1880
1080
ENDCHAR
STARTCHAR 0176
ENCODING 374
SWIDTH 588 0
DWIDTH 10 0
BBX 9 15 1 0
BITMAP
1800
1800
2400
4200
0000
C380
6100
3200
1600
1C00
0800
0800
0800
0800
1C00
ENDCHAR
STARTCHAR 0177
ENCODING 375
SWIDTH 470 0
DWIDTH 8 0
BBX 8 16 0 -4
BITMAP
08
14
22
00
E7
62
22
24
34
14
18
08
08
10
A0
C0
ENDCHAR
STARTCHAR 0178
ENCODING 376
SWIDTH 588 0
DWIDTH 10 0
BBX 9 13 1 0
BITMAP
4400
4400
0000
C380
6100
3200
1600
1C00
0800
0800
0800
0800
1C00
ENDCHAR
STARTCHAR 0179
ENCODING 377
SWIDTH 529 0
DWIDTH 9 0
BBX 8 15 0 0
BITMAP
02
06
08
10
00
7F
42
46
04
08
18
10
21
61
FF
ENDCHAR
STARTCHAR 017A
ENCODING 378
SWIDTH 470 0
DWIDTH 8 0
BBX 6 12 1 0
BITMAP
08
10
20
00
FC
88
10
30
20
40
C4
FC
ENDCHAR
STARTCHAR 017B
ENCODING 379
SWIDTH 529 0
DWIDTH 9 0
BBX 8 13 0 0
BITMAP
08
08
00
7F
42
46
04
08
18
10
21
61
FF
ENDCHAR
STARTCHAR 017C
ENCODING 380
SWIDTH 470 0
DWIDTH 8 0
BBX 6 11 1 0
BITMAP
20
20
00
FC
88
10
30
20
40
C4
FC
ENDCHAR
STARTCHAR 017D
ENCODING 381
SWIDTH 529 0
DWIDTH 9 0
BBX 8 15 0 0
BITMAP
22
16
1C
00
00
7F
42
46
04
08
18
10
21
61
FF
ENDCHAR
STARTCHAR 017E
ENCODING 382
SWIDTH 470 0
DWIDTH 8 0
BBX 6 12 1 0
BITMAP
8C
48
30
00
FC
88
10
30
20
40
C4
FC
ENDCHAR
STARTCHAR 0181
ENCODING 385
SWIDTH 647 0
DWIDTH 11 0
BBX 10 10 0 0
BITMAP
3F00
C880
8880
8900
0F80
08C0
0840
0840
0840
1F80
ENDCHAR
STARTCHAR 0186
ENCODING 390
SWIDTH 529 0
DWIDTH 9 0
BBX 7 10 1 0
BITMAP
78
84
02
02
02
02
C2
84
84
78
ENDCHAR
STARTCHAR 0189
ENCODING 393
SWIDTH 588 0
DWIDTH 10 0
BBX 8 10 1 0
BITMAP
FC
46
41
41
F1
41
41
42
42
FC
ENDCHAR
STARTCHAR 018A
ENCODING 394
SWIDTH 705 0
DWIDTH 12 0
BBX 11 10 0 0
BITMAP
3F80
C8C0
8860
8820
0820
0820
0820
0840
0840
1F80
ENDCHAR
STARTCHAR 018E
ENCODING 398
SWIDTH 529 0
DWIDTH 9 0
BBX 7 10 1 0
BITMAP
7E
44
04
04
3C
44
04
84
84
FE
ENDCHAR
STARTCHAR 0190
ENCODING 400
SWIDTH 529 0
DWIDTH 9 0
BBX 7 10 1 0
BITMAP
3C
C6
80
C0
70
40
80
80
86
78
ENDCHAR
STARTCHAR 0192
ENCODING 402
SWIDTH 294 0
DWIDTH 5 0
BBX 9 17 -2 -4
BITMAP
0380
0500
0800
0800
0800
1E00
0800
0800
0800
0800
0800
0800
0800
0800
0800
1000
E000
ENDCHAR
STARTCHAR 0197
ENCODING 407
SWIDTH 294 0
DWIDTH 5 0
BBX 3 10 1 0
BITMAP
E0
40
40
40
E0
40
40
40
40
E0
ENDCHAR
STARTCHAR 0198
ENCODING 408
SWIDTH 588 0
DWIDTH 10 0
BBX 8 10 1 0
BITMAP
E7
4D
49
50
60
70
58
4C
44
E3
ENDCHAR
STARTCHAR 0199
ENCODING 409
SWIDTH 529 0
DWIDTH 9 0
BBX 8 13 1 0
BITMAP
1C
26
40
40
40
4E
48
50
60
50
48
4C
E7
ENDCHAR
STARTCHAR 019A
ENCODING 410
SWIDTH 294 0
DWIDTH 5 0
BBX 5 13 0 0
BITMAP
20
60
20
20
20
20
78
A0
20
20
20
20
70
ENDCHAR
STARTCHAR 019D
ENCODING 413
SWIDTH 647 0
DWIDTH 11 0
BBX 12 13 -2 -3
BITMAP
1870
0C20
0C20
0A20
0920
0920
08A0
08E0
0860
0820
0800
1000
E000
ENDCHAR
STARTCHAR 019F
ENCODING 415
SWIDTH 588 0
DWIDTH 10 0
BBX 8 10 1 0
BITMAP
3C
42
81
81
FF
81
81
C2
42
3C
ENDCHAR
STARTCHAR 01A0
ENCODING 416
SWIDTH 647 0
DWIDTH 11 0
BBX 9 12 1 0
BITMAP
0080
0180
1F00
6200
8100
8100
8100
8100
8100
8200
4200
3C00
ENDCHAR
STARTCHAR 01A1
ENCODING 417
SWIDTH 588 0
DWIDTH 10 0
BBX 8 10 1 0
BITMAP
01
01
3E
46
82
82
82
82
44
38
ENDCHAR
STARTCHAR 01A9
ENCODING 425
SWIDTH 529 0
DWIDTH 9 0
BBX 8 10 0 0
BITMAP
7F
21
31
10
08
08
10
21
61
FF
ENDCHAR
STARTCHAR 01AA
ENCODING 426
SWIDTH 352 0
DWIDTH 6 0
BBX 8 17 0 -4
BITMAP
60
90
90
F0
10
10
10
10
10
10
10
10
10
10
12
13
0C
ENDCHAR
STARTCHAR 01AF
ENCODING 431
SWIDTH 705 0
DWIDTH 12 0
BBX 11 12 1 0
BITMAP
0020
0060
E1C0
4080
4080
4080
4080
4080
4080
4080
2100
1E00
ENDCHAR
STARTCHAR 01B0
ENCODING 432
SWIDTH 588 0
DWIDTH 10 0
BBX 9 10 1 0
BITMAP
0080
0180
CD00
4600
4400
4400
4400
4400
4C00
7700
ENDCHAR
STARTCHAR 01B3
ENCODING 435
SWIDTH 705 0
DWIDTH 12 0
BBX 13 10 0 0
BITMAP
C070
61C8
3388
1300
1C00
0800
0800
0800
0800
1C00
ENDCHAR
STARTCHAR 01B4
ENCODING 436
SWIDTH 470 0
DWIDTH 8 0
BBX 11 14 0 -4
BITMAP
0060
0180
E100
6200
2200
2200
3400
1400
1800
1800
0800
1000
1000
E000
ENDCHAR
STARTCHAR 01B7
ENCODING 439
SWIDTH 529 0
DWIDTH 9 0
BBX 7 10 1 0
BITMAP
7E
84
88
3C
46
02
02
02
C4
78
ENDCHAR
STARTCHAR 01CD
ENCODING 461
SWIDTH 588 0
DWIDTH 10 0
BBX 10 15 0 0
BITMAP
2200
1300
0C00
0000
0000
0400
0C00
1400
1200
1200
1E00
2100
2100
4180
E3C0
ENDCHAR
STARTCHAR 01CE
ENCODING 462
SWIDTH 470 0
DWIDTH 8 0
BBX 7 12 1 0
BITMAP
8C
48
30
00
1C
64
04
1C
64
84
8C
76
ENDCHAR
STARTCHAR 01CF
ENCODING 463
SWIDTH 294 0
DWIDTH 5 0
BBX 5 15 0 0
BITMAP
88
D0
70
00
00
70
20
20
20
20
20
20
20
20
70
ENDCHAR
STARTCHAR 01D0
ENCODING 464
SWIDTH 294 0
DWIDTH 5 0
BBX 5 12 0 0
BITMAP
88
50
20
00
20
60
20
20
20
20
20
70
ENDCHAR
STARTCHAR 01D1
ENCODING 465
SWIDTH 588 0
DWIDTH 10 0
BBX 8 15 1 0
BITMAP
42
24
18
00
00
3C
42
81
81
81
81
81
82
42
3C
ENDCHAR
STARTCHAR 01D2
ENCODING 466
SWIDTH 529 0
DWIDTH 9 0
BBX 7 12 1 0
BITMAP
44
28
10
00
38
44
82
82
82
82
44
38
ENDCHAR
STARTCHAR 01D3
ENCODING 467
SWIDTH 647 0
DWIDTH 11 0
BBX 9 15 1 0
BITMAP
2200
1600
1C00
0000
0000
E380
4100
4100
4100
4100
4100
4100
4100
2200
3C00
ENDCHAR
STARTCHAR 01D4
ENCODING 468
SWIDTH 529 0
DWIDTH 9 0
BBX 9 12 0 0
BITMAP
2200
1400
0800
0000
C300
4100
4100
4100
4100
4100
4300
3D80
ENDCHAR
STARTCHAR 01D5
ENCODING 469
SWIDTH 647 0
DWIDTH 11 0
BBX 9 15 1 0
BITMAP
3F00
0000
2200
2200
0000
E380
4100
4100
4100
4100
4100
4100
4100
2200
3C00
ENDCHAR
STARTCHAR 01D6
ENCODING 470
SWIDTH 529 0
DWIDTH 9 0
BBX 9 13 0 0
BITMAP
3E00
0000
2200
4200
0000
C300
4100
4100
4100
4100
4100
4300
3D80
ENDCHAR
STARTCHAR 01D7
ENCODING 471
SWIDTH 647 0
DWIDTH 11 0
BBX 9 17 1 0
BITMAP
0600
0C00
1000
0000
2200
2200
0000
E380
4100
4100
4100
4100
4100
4100
4100
2200
3C00
ENDCHAR
STARTCHAR 01D8
ENCODING 472
SWIDTH 529 0
DWIDTH 9 0
BBX 9 15 0 0
BITMAP
0600
0400
0800
0000
2200
4200
0000
C300
4100
4100
4100
4100
4100
4300
3D80
ENDCHAR
STARTCHAR 01D9
ENCODING 473
SWIDTH 647 0
DWIDTH 11 0
BBX 9 17 1 0
BITMAP
2200
1C00
0800
0000
2200
2200
0000
E380
4100
4100
4100
4100
4100
4100
4100
2200
3C00
ENDCHAR
STARTCHAR 01DA
ENCODING 474
SWIDTH 529 0
DWIDTH 9 0
BBX 9 15 0 0
BITMAP
2200
1400
0800
0000
2200
4200
0000
C300
4100
4100
4100
4100
4100
4300
3D80
ENDCHAR
STARTCHAR 01DB
ENCODING 475
SWIDTH 647 0
DWIDTH 11 0
BBX 9 17 1 0
BITMAP
3000
1800
0400
0000
2200
2200
0000
E380
4100
4100
4100
4100
4100
4100
4100
2200
3C00
ENDCHAR
STARTCHAR 01DC
ENCODING 476
SWIDTH 529 0
DWIDTH 9 0
BBX 9 15 0 0
BITMAP
3000
1800
0800
0000
2200
4200
0000
C300
4100
4100
4100
4100
4100
4300
3D80
ENDCHAR
STARTCHAR 01DD
ENCODING 477
SWIDTH 470 0
DWIDTH 8 0
BBX 6 8 1 0
BITMAP
78
88
04
04
FC
84
88
70
ENDCHAR
STARTCHAR 01DE
ENCODING 478
SWIDTH 588 0
DWIDTH 10 0
BBX 10 15 0 0
BITMAP
3F00
0000
2200
2200
0000
0400
0C00
1400
1200
1200
1E00
2100
2100
4180
E3C0
ENDCHAR
STARTCHAR 01DF
ENCODING 479
SWIDTH 470 0
DWIDTH 8 0
BBX 7 13 1 0
BITMAP
FC
00
88
88
00
1C
64
04
1C
64
84
8C
76
ENDCHAR
STARTCHAR 01E0
ENCODING 480
SWIDTH 588 0
DWIDTH 10 0
BBX 10 15 0 0
BITMAP
3F00
0000
0800
0800
0000
0400
0C00
1400
1200
1200
1E00
2100
2100
4180
E3C0
ENDCHAR
STARTCHAR 01E1
ENCODING 481
SWIDTH 470 0
DWIDTH 8 0
BBX 7 13 1 0
BITMAP
FC
00
20
20
00
1C
64
04
1C
64
84
8C
76
ENDCHAR
STARTCHAR 01E2
ENCODING 482
SWIDTH 764 0
DWIDTH 13 0
BBX 12 13 1 0
BITMAP
0FC0
0000
0000
1FE0
0A20
0A00
1200
1FE0
3200
2200
2200
4210
E7F0
ENDCHAR
STARTCHAR 01E3
ENCODING 483
SWIDTH 705 0
DWIDTH 12 0
BBX 10 10 1 0
BITMAP
1F00
2000
3B80
CC40
8840
3FC0
4800
8800
9CC0
E700
ENDCHAR
STARTCHAR 01E6
ENCODING 486
SWIDTH 588 0
DWIDTH 10 0
BBX 9 15 1 0
BITMAP
4200
3400
1800
0000
0000
1E00
6300
8000
8000
8000
8780
8100
8100
6100
3E00
ENDCHAR
STARTCHAR 01E7
ENCODING 487
SWIDTH 470 0
DWIDTH 8 0
BBX 8 16 0 -4
BITMAP
42
34
18
00
3F
46
82
82
C4
38
60
3C
C3
81
C2
7C
ENDCHAR
STARTCHAR 01E8
ENCODING 488
SWIDTH 588 0
DWIDTH 10 0
BBX 9 15 1 0
BITMAP
4400
2600
1800
0000
0000
E700
4400
4800
5000
6000
5000
5800
4C00
4600
E380
ENDCHAR
STARTCHAR 01E9
ENCODING 489
SWIDTH 529 0
DWIDTH 9 0
BBX 8 17 1 0
BITMAP
44
28
38
00
40
C0
40
40
40
4E
48
50
60
50
48
4C
E7
ENDCHAR
STARTCHAR 01EE
ENCODING 494
SWIDTH 529 0
DWIDTH 9 0
BBX 7 15 1 0
BITMAP
84
48
38
00
00
7E
84
88
3C
46
02
02
02
C4
78
ENDCHAR
STARTCHAR 01EF
ENCODING 495
SWIDTH 470 0
DWIDTH 8 0
BBX 6 16 1 -4
BITMAP
88
50
30
00
FC
88
10
10
20
78
0C
04
04
04
C8
70
ENDCHAR
STARTCHAR 01F4
ENCODING 500
SWIDTH 588 0
DWIDTH 10 0
BBX 9 15 1 0
BITMAP
0400
0600
1800
0000
0000
1E00
6300
8000
8000
8000
8780
8100
8100
6100
3E00
ENDCHAR
STARTCHAR 01F5
ENCODING 501
SWIDTH 470 0
DWIDTH 8 0
BBX 8 16 0 -4
BITMAP
06
08
10
00
3F
46
82
82
C4
38
60
3C
C3
81
C2
7C
ENDCHAR
STARTCHAR 01F8
ENCODING 504
SWIDTH 647 0
DWIDTH 11 0
BBX 9 15 1 0
BITMAP
2000
3000
0800
0400
0000
C380
6100
6100
5100
4900
4D00
4500
4300
4300
E100
ENDCHAR
STARTCHAR 01F9
ENCODING 505
SWIDTH 529 0
DWIDTH 9 0
BBX 8 12 1 0
BITMAP
60
10
08
00
4E
D2
62
42
42
42
42
E7
ENDCHAR
STARTCHAR 01FA
ENCODING 506
SWIDTH 588 0
DWIDTH 10 0
BBX 10 18 0 0
BITMAP
0300
0C00
1000
0C00
1400
1C00
0000
0000
0400
0C00
1400
1200
1200
1E00
2100
2100
4180
E3C0
ENDCHAR
STARTCHAR 01FB
ENCODING 507
SWIDTH 470 0
DWIDTH 8 0
BBX 7 16 1 0
BITMAP
08
18
10
20
30
50
70
00
1C
64
04
1C
64
84
8C
76
ENDCHAR
STARTCHAR 01FC
ENCODING 508
SWIDTH 764 0
DWIDTH 13 0
BBX 12 15 1 0
BITMAP
0080
0180
0200
0400
0000
1FE0
0A20
0A00
1200
1FE0
3200
2200
2200
4210
E7F0
ENDCHAR
STARTCHAR 01FD
ENCODING 509
SWIDTH 705 0
DWIDTH 12 0
BBX 10 12 1 0
BITMAP
0300
0400
0800
0000
3B80
CC40
8840
3FC0
4800
8800
9CC0
E700
ENDCHAR
STARTCHAR 01FE
ENCODING 510
SWIDTH 588 0
DWIDTH 10 0
BBX 8 15 1 0
BITMAP
04
0E
18
00
00
1D
62
83
85
89
91
A1
C2
42
BC
ENDCHAR
STARTCHAR 01FF
ENCODING 511
SWIDTH 529 0
DWIDTH 9 0
BBX 7 12 1 0
BITMAP
0C
18
10
00
3E
44
8E
92
92
E2
44
F8
ENDCHAR
STARTCHAR 021E
ENCODING 542
SWIDTH 647 0
DWIDTH 11 0
BBX 9 15 1 0
BITMAP
4200
3400
1C00
0000
0000
E380
4100
4100
4100
7F00
4100
4100
4100
4100
E380
ENDCHAR
STARTCHAR 021F
ENCODING 543
SWIDTH 529 0
DWIDTH 9 0
BBX 8 17 1 0
BITMAP
44
2C
18
00
40
C0
40
40
40
4E
52
62
42
42
42
42
E7
ENDCHAR
STARTCHAR 0226
ENCODING 550
SWIDTH 588 0
DWIDTH 10 0
BBX 10 13 0 0
BITMAP
0800
0800
0000
0400
0C00
1400
1200
1200
1E00
2100
2100
4180
E3C0
ENDCHAR
STARTCHAR 0227
ENCODING 551
SWIDTH 470 0
DWIDTH 8 0
BBX 7 11 1 0
BITMAP
20
20
00
1C
64
04
1C
64
84
8C
76
ENDCHAR
STARTCHAR 0228
ENCODING 552
SWIDTH 470 0
DWIDTH 8 0
BBX 7 14 1 -4
BITMAP
FC
44
40
40
7C
40
40
40
46
FC
20
30
10
20
ENDCHAR
STARTCHAR 0229
ENCODING 553
SWIDTH 470 0
DWIDTH 8 0
BBX 6 12 1 -4
BITMAP
38
44
84
FC
80
80
4C
70
20
10
30
20
ENDCHAR
STARTCHAR 022A
ENCODING 554
SWIDTH 588 0
DWIDTH 10 0
BBX 8 15 1 0
BITMAP
7E
00
44
44
00
3C
42
81
81
81
81
81
82
42
3C
ENDCHAR
STARTCHAR 022B
ENCODING 555
SWIDTH 529 0
DWIDTH 9 0
BBX 7 13 1 0
BITMAP
7C
00
84
84
00
38
44
82
82
82
82
44
38
ENDCHAR
STARTCHAR 022C
ENCODING 556
SWIDTH 588 0
DWIDTH 10 0
BBX 8 15 1 0
BITMAP
7E
12
32
4C
00
3C
42
81
81
81
81
81
82
42
3C
ENDCHAR
STARTCHAR 022D
ENCODING 557
SWIDTH 529 0
DWIDTH 9 0
BBX 7 13 1 0
BITMAP
7C
00
34
D8
00
38
44
82
82
82
82
44
38
ENDCHAR
STARTCHAR 022E
ENCODING 558
SWIDTH 588 0
DWIDTH 10 0
BBX 8 13 1 0
BITMAP
10
10
00
3C
42
81
81
81
81
81
82
42
3C
ENDCHAR
STARTCHAR 022F
ENCODING 559
SWIDTH 529 0
DWIDTH 9 0
BBX 7 11 1 0
BITMAP
20
20
00
38
44
82
82
82
82
44
38
ENDCHAR
STARTCHAR 0230
ENCODING 560
SWIDTH 588 0
DWIDTH 10 0
BBX 8 15 1 0
BITMAP
7E
00
10
10
00
3C
42
81
81
81
81
81
82
42
3C
ENDCHAR
STARTCHAR 0231
ENCODING 561
SWIDTH 529 0
DWIDTH 9 0
BBX 7 13 1 0
BITMAP
7C
00
20
20
00
38
44
82
82
82
82
44
38
ENDCHAR
STARTCHAR 0232
ENCODING 562
SWIDTH 588 0
DWIDTH 10 0
BBX 9 13 1 0
BITMAP
3E00
4000
0000
C380
6100
3200
1600
1C00
0800
0800
0800
0800
1C00
ENDCHAR
STARTCHAR 0233
ENCODING 563
SWIDTH 470 0
DWIDTH 8 0
BBX 8 14 0 -4
BITMAP
3E
00
E7
62
22
24
34
14
18
08
08
10
A0
C0
ENDCHAR
STARTCHAR 0237
ENCODING 567
SWIDTH 235 0
DWIDTH 4 0
BBX 5 12 -2 -4
BITMAP
08
18
08
08
08
08
08
08
08
08
10
E0
ENDCHAR
STARTCHAR 023D
ENCODING 573
SWIDTH 470 0
DWIDTH 8 0
BBX 7 10 1 0
BITMAP
E0
40
40
40
40
F0
40
40
42
FE
ENDCHAR
STARTCHAR 0241
ENCODING 577
SWIDTH 470 0
DWIDTH 8 0
BBX 6 10 1 0
BITMAP
38
C4
84
84
08
30
20
20
20
78
ENDCHAR
STARTCHAR 0242
ENCODING 578
SWIDTH 411 0
DWIDTH 7 0
BBX 5 8 1 0
BITMAP
70
88
88
10
20
20
20
70
ENDCHAR
STARTCHAR 0244
ENCODING 580
SWIDTH 647 0
DWIDTH 11 0
BBX 9 10 1 0
BITMAP
E380
4100
4100
4100
FF80
4100
4100
4100
2200
3C00
ENDCHAR
STARTCHAR 0245
ENCODING 581
SWIDTH 647 0
DWIDTH 11 0
BBX 11 10 0 0
BITMAP
0400
0C00
0A00
0A00
1300
1100
2100
2180
2080
F1E0
ENDCHAR
STARTCHAR 024A
ENCODING 586
SWIDTH 588 0
DWIDTH 10 0
BBX 11 14 1 -4
BITMAP
1D00
2300
4100
8100
8100
8100
8100
8100
4700
3D00
0100
0120
0120
01C0
ENDCHAR
STARTCHAR 024B
ENCODING 587
SWIDTH 529 0
DWIDTH 9 0
BBX 10 12 1 -4
BITMAP
3C00
4400
8400
8400
8400
8400
4C00
7400
0400
0440
0440
0380
ENDCHAR
STARTCHAR 0251
ENCODING 593
SWIDTH 470 0
DWIDTH 8 0
BBX 7 8 1 0
BITMAP
3C
44
84
84
84
84
4C
76
ENDCHAR
STARTCHAR 0253
ENCODING 595
SWIDTH 529 0
DWIDTH 9 0
BBX 7 13 1 0
BITMAP
38
4C
80
80
80
9C
E6
82
82
82
82
84
78
ENDCHAR
STARTCHAR 0254
ENCODING 596
SWIDTH 470 0
DWIDTH 8 0
BBX 6 8 1 0
BITMAP
78
88
04
04
84
84
88
70
ENDCHAR
STARTCHAR 0256
ENCODING 598
SWIDTH 529 0
DWIDTH 9 0
BBX 10 17 1 -4
BITMAP
0600
0200
0200
0200
0200
3E00
4200
8200
8200
8200
8200
4600
3A00
0200
0240
0240
0380
ENDCHAR
STARTCHAR 0257
ENCODING 599
SWIDTH 529 0
DWIDTH 9 0
BBX 10 13 1 0
BITMAP
01C0
0240
0200
0200
0200
3E00
4200
8200
8200
8200
8200
4600
3B00
ENDCHAR
STARTCHAR 0259
ENCODING 601
SWIDTH 470 0
DWIDTH 8 0
BBX 6 8 1 0
BITMAP
78
88
04
04
FC
84
88
70
ENDCHAR
STARTCHAR 025B
ENCODING 603
SWIDTH 411 0
DWIDTH 7 0
BBX 6 8 1 0
BITMAP
78
88
80
E0
C0
80
8C
F0
ENDCHAR
STARTCHAR 0263
ENCODING 611
SWIDTH 470 0
DWIDTH 8 0
BBX 8 12 0 -4
BITMAP
E7
62
24
24
18
18
18
18
24
24
24
18
ENDCHAR
STARTCHAR 0268
ENCODING 616
SWIDTH 294 0
DWIDTH 5 0
BBX 3 11 1 0
BITMAP
40
C0
00
40
C0
40
40
E0
40
40
E0
ENDCHAR
STARTCHAR 0269
ENCODING 617
SWIDTH 294 0
DWIDTH 5 0
BBX 4 8 1 0
BITMAP
C0
40
40
40
40
40
50
60
ENDCHAR
STARTCHAR 026B
ENCODING 619
SWIDTH 352 0
DWIDTH 6 0
BBX 5 13 0 0
BITMAP
60
20
20
20
20
68
B0
20
20
20
20
20
70
ENDCHAR
STARTCHAR 0272
ENCODING 626
SWIDTH 529 0
DWIDTH 9 0
BBX 11 12 -2 -4
BITMAP
09C0
1E40
0C40
0840
0840
0840
0840
08E0
0800
0800
1000
E000
ENDCHAR
STARTCHAR 0275
ENCODING 629
SWIDTH 529 0
DWIDTH 9 0
BBX 7 8 1 0
BITMAP
38
44
82
82
FE
82
44
38
ENDCHAR
STARTCHAR 0283
ENCODING 643
SWIDTH 235 0
DWIDTH 4 0
BBX 7 17 -2 -4
BITMAP
0E
12
10
10
10
10
10
10
18
08
08
08
08
08
08
10
E0
ENDCHAR
STARTCHAR 0289
ENCODING 649
SWIDTH 529 0
DWIDTH 9 0
BBX 9 8 0 0
BITMAP
4300
C100
4100
4100
FF80
4100
4300
3D80
ENDCHAR
STARTCHAR 028A
ENCODING 650
SWIDTH 470 0
DWIDTH 8 0
BBX 6 8 1 0
BITMAP
CC
48
84
84
84
84
C8
70
ENDCHAR
STARTCHAR 028C
ENCODING 652
SWIDTH 470 0
DWIDTH 8 0
BBX 8 8 0 0
BITMAP
08
18
1C
24
24
26
42
E7
ENDCHAR
STARTCHAR 0292
ENCODING 658
SWIDTH 470 0
DWIDTH 8 0
BBX 6 12 1 -4
BITMAP
FC
88
10
10
20
78
0C
04
04
04
C8
70
ENDCHAR
STARTCHAR 0294
ENCODING 660
SWIDTH 470 0
DWIDTH 8 0
BBX 6 13 1 0
BITMAP
38
4C
84
84
08
08
10
20
20
20
20
20
78
ENDCHAR
STARTCHAR 02A0
ENCODING 672
SWIDTH 529 0
DWIDTH 9 0
BBX 10 17 1 -4
BITMAP
01C0
0240
0200
0200
0200
3E00
4200
8200
8200
8200
8200
4600
3A00
0200
0200
0200
0700
ENDCHAR
STARTCHAR 02BC
ENCODING 700
SWIDTH 235 0
DWIDTH 4 0
BBX 2 4 1 9
BITMAP
40
C0
40
80
ENDCHAR
STARTCHAR 02C0
ENCODING 704
SWIDTH 352 0
DWIDTH 6 0
BBX 5 6 0 7
BITMAP
70
88
08
10
20
20
ENDCHAR
STARTCHAR 02C6
ENCODING 710
SWIDTH 352 0
DWIDTH 6 0
BBX 6 3 0 9
BITMAP
30
48
84
ENDCHAR
STARTCHAR 02C7
ENCODING 711
SWIDTH 352 0
DWIDTH 6 0
BBX 6 3 0 9
BITMAP
84
48
30
ENDCHAR
STARTCHAR 02C9
ENCODING 713
SWIDTH 470 0
DWIDTH 8 0
BBX 6 1 1 9
BITMAP
FC
ENDCHAR
STARTCHAR 02CA
ENCODING 714
SWIDTH 176 0
DWIDTH 3 0
BBX 3 3 0 9
BITMAP
20
40
80
ENDCHAR
STARTCHAR 02CB
ENCODING 715
SWIDTH 176 0
DWIDTH 3 0
BBX 3 3 0 9
BITMAP
C0
40
20
ENDCHAR
STARTCHAR 02CD
ENCODING 717
SWIDTH 470 0
DWIDTH 8 0
BBX 6 1 1 -2
BITMAP
FC
ENDCHAR
STARTCHAR 02D7
ENCODING 727
SWIDTH 352 0
DWIDTH 6 0
BBX 4 1 1 4
BITMAP
F0
ENDCHAR
STARTCHAR 02D8
ENCODING 728
SWIDTH 352 0
DWIDTH 6 0
BBX 6 3 0 9
BITMAP
84
48
30
ENDCHAR
STARTCHAR 02D9
ENCODING 729
SWIDTH 176 0
DWIDTH 3 0
BBX 1 2 1 9
BITMAP
80
80
ENDCHAR
STARTCHAR 02DA
ENCODING 730
SWIDTH 235 0
DWIDTH 4 0
BBX 2 3 1 9
BITMAP
C0
C0
C0
ENDCHAR
STARTCHAR 02DB
ENCODING 731
SWIDTH 235 0
DWIDTH 4 0
BBX 3 4 1 -4
BITMAP
60
80
A0
C0
ENDCHAR
STARTCHAR 02DC
ENCODING 732
SWIDTH 411 0
DWIDTH 7 0
BBX 5 2 1 9
BITMAP
E8
B0
ENDCHAR
STARTCHAR 02DD
ENCODING 733
SWIDTH 352 0
DWIDTH 6 0
BBX 5 3 1 9
BITMAP
58
90
A0
ENDCHAR
STARTCHAR 0300
ENCODING 768
SWIDTH 0 0
DWIDTH 0 0
BBX 3 3 -6 9
BITMAP
C0
40
20
ENDCHAR
STARTCHAR 0301
ENCODING 769
SWIDTH 0 0
DWIDTH 0 0
BBX 3 3 -5 9
BITMAP
60
40
80
ENDCHAR
STARTCHAR 0302
ENCODING 770
SWIDTH 0 0
DWIDTH 0 0
BBX 5 3 -7 9
BITMAP
30
50
88
ENDCHAR
STARTCHAR 0303
ENCODING 771
SWIDTH 0 0
DWIDTH 0 0
BBX 6 2 -7 9
BITMAP
6C
B8
ENDCHAR
STARTCHAR 0304
ENCODING 772
SWIDTH 0 0
DWIDTH 0 0
BBX 6 1 -7 9
BITMAP
FC
ENDCHAR
STARTCHAR 0306
ENCODING 774
SWIDTH 0 0
DWIDTH 0 0
BBX 5 3 -7 9
BITMAP
88
88
70
ENDCHAR
STARTCHAR 0307
ENCODING 775
SWIDTH 0 0
DWIDTH 0 0
BBX 1 2 -5 9
BITMAP
80
80
ENDCHAR
STARTCHAR 0308
ENCODING 776
SWIDTH 0 0
DWIDTH 0 0
BBX 5 2 -7 9
BITMAP
88
88
ENDCHAR
STARTCHAR 0309
ENCODING 777
SWIDTH 0 0
DWIDTH 0 0
BBX 3 3 -6 9
BITMAP
60
A0
40
ENDCHAR
STARTCHAR 030A
ENCODING 778
SWIDTH 0 0
DWIDTH 0 0
BBX 3 3 -6 9
BITMAP
60
A0
C0
ENDCHAR
STARTCHAR 030B
ENCODING 779
SWIDTH 0 0
DWIDTH 0 0
BBX 5 3 -6 9
BITMAP
68
50
A0
ENDCHAR
STARTCHAR 030C
ENCODING 780
SWIDTH 0 0
DWIDTH 0 0
BBX 5 3 -7 9
BITMAP
88
50
30
ENDCHAR
STARTCHAR 031B
ENCODING 795
SWIDTH 58 0
DWIDTH 1 0
BBX 3 4 -3 6
BITMAP
20
20
20
C0
ENDCHAR
STARTCHAR 0323
ENCODING 803
SWIDTH 0 0
DWIDTH 0 0
BBX 1 2 -5 -3
BITMAP
80
80
ENDCHAR
STARTCHAR 0327
ENCODING 807
SWIDTH 0 0
DWIDTH 0 0
BBX 2 4 -5 -4
BITMAP
80
C0
40
80
ENDCHAR
STARTCHAR 0328
ENCODING 808
SWIDTH 0 0
DWIDTH 0 0
BBX 3 4 -6 -4
BITMAP
60
80
A0
C0
ENDCHAR
STARTCHAR 0331
ENCODING 817
SWIDTH 0 0
DWIDTH 0 0
BBX 6 1 -7 -3
BITMAP
FC
ENDCHAR
STARTCHAR 033F
ENCODING 831
SWIDTH 0 0
DWIDTH 0 0
BBX 10 4 -9 9
BITMAP
7FC0
8000
0000
FFC0
ENDCHAR
STARTCHAR 035E
ENCODING 862
SWIDTH 0 0
DWIDTH 0 0
BBX 10 1 -5 14
BITMAP
FFC0
ENDCHAR
STARTCHAR 035F
ENCODING 863
SWIDTH 0 0
DWIDTH 0 0
BBX 10 1 -5 -6
BITMAP
FFC0
ENDCHAR
STARTCHAR 03A0
ENCODING 928
SWIDTH 647 0
DWIDTH 11 0
BBX 9 10 1 0
BITMAP
FF80
4100
4100
4100
4100
4100
4100
4100
4100
E380
ENDCHAR
STARTCHAR 03A9
ENCODING 937
SWIDTH 647 0
DWIDTH 11 0
BBX 9 10 1 0
BITMAP
3E00
4100
8080
8080
8080
8080
8100
4100
A280
E380
ENDCHAR
STARTCHAR 03C0
ENCODING 960
SWIDTH 529 0
DWIDTH 9 0
BBX 8 8 0 0
BITMAP
FF
A4
24
24
24
24
64
43
ENDCHAR
STARTCHAR 1E02
ENCODING 7682
SWIDTH 529 0
DWIDTH 9 0
BBX 7 13 1 0
BITMAP
20
20
00
F8
44
44
44
7C
46
42
42
42
FC
ENDCHAR
STARTCHAR 1E03
ENCODING 7683
SWIDTH 529 0
DWIDTH 9 0
BBX 8 13 0 0
BITMAP
40
C0
48
48
40
4E
73
41
41
41
41
42
3C
ENDCHAR
STARTCHAR 1E04
ENCODING 7684
SWIDTH 529 0
DWIDTH 9 0
BBX 7 13 1 -3
BITMAP
F8
44
44
44
7C
46
42
42
42
FC
00
20
20
ENDCHAR
STARTCHAR 1E05
ENCODING 7685
SWIDTH 529 0
DWIDTH 9 0
BBX 8 16 0 -3
BITMAP
40
C0
40
40
40
4E
73
41
41
41
41
42
3C
00
10
10
ENDCHAR
STARTCHAR 1E06
ENCODING 7686
SWIDTH 529 0
DWIDTH 9 0
BBX 7 13 1 -3
BITMAP
F8
44
44
44
7C
46
42
42
42
FC
00
00
7C
ENDCHAR
STARTCHAR 1E07
ENCODING 7687
SWIDTH 529 0
DWIDTH 9 0
BBX 8 16 0 -3
BITMAP
40
C0
40
40
40
4E
73
41
41
41
41
42
3C
00
00
7E
ENDCHAR
STARTCHAR 1E08
ENCODING 7688
SWIDTH 529 0
DWIDTH 9 0
BBX 7 18 1 -4
BITMAP
06
0C
10
00
3E
42
80
80
80
80
80
80
42
66
18
18
08
10
ENDCHAR
STARTCHAR 1E09
ENCODING 7689
SWIDTH 411 0
DWIDTH 7 0
BBX 6 16 1 -4
BITMAP
0C
18
10
20
3C
48
80
80
80
80
C4
78
20
30
10
20
ENDCHAR
STARTCHAR 1E0A
ENCODING 7690
SWIDTH 588 0
DWIDTH 10 0
BBX 8 13 1 0
BITMAP
20
10
00
FC
46
41
41
41
41
41
42
42
FC
ENDCHAR
STARTCHAR 1E0B
ENCODING 7691
SWIDTH 529 0
DWIDTH 9 0
BBX 8 13 1 0
BITMAP
06
02
42
42
02
3E
42
82
82
82
82
46
3B
ENDCHAR
STARTCHAR 1E0C
ENCODING 7692
SWIDTH 588 0
DWIDTH 10 0
BBX 8 13 1 -3
BITMAP
FC
46
41
41
41
41
41
42
42
FC
00
10
10
ENDCHAR
STARTCHAR 1E0D
ENCODING 7693
SWIDTH 529 0
DWIDTH 9 0
BBX 8 16 1 -3
BITMAP
06
02
02
02
02
3E
42
82
82
82
82
46
3B
00
20
20
ENDCHAR
STARTCHAR 1E0E
ENCODING 7694
SWIDTH 588 0
DWIDTH 10 0
BBX 8 13 1 -3
BITMAP
FC
46
41
41
41
41
41
42
42
FC
00
00
7C
ENDCHAR
STARTCHAR 1E0F
ENCODING 7695
SWIDTH 529 0
DWIDTH 9 0
BBX 8 16 1 -3
BITMAP
06
02
02
02
02
3E
42
82
82
82
82
46
3B
00
00
7C
ENDCHAR
STARTCHAR 1E14
ENCODING 7700
SWIDTH 470 0
DWIDTH 8 0
BBX 7 17 1 0
BITMAP
C0
30
08
00
7C
80
00
FC
44
40
40
7C
40
40
40
42
FE
ENDCHAR
STARTCHAR 1E15
ENCODING 7701
SWIDTH 470 0
DWIDTH 8 0
BBX 6 15 1 0
BITMAP
60
20
10
00
00
7C
00
38
44
84
FC
80
80
44
78
ENDCHAR
STARTCHAR 1E16
ENCODING 7702
SWIDTH 470 0
DWIDTH 8 0
BBX 7 17 1 0
BITMAP
0C
10
60
00
7C
80
00
FC
44
40
40
7C
40
40
40
42
FE
ENDCHAR
STARTCHAR 1E17
ENCODING 7703
SWIDTH 470 0
DWIDTH 8 0
BBX 6 15 1 0
BITMAP
0C
18
20
00
00
7C
00
38
44
84
FC
80
80
44
78
ENDCHAR
STARTCHAR 1E1C
ENCODING 7708
SWIDTH 470 0
DWIDTH 8 0
BBX 7 18 1 -4
BITMAP
84
78
00
00
FC
44
40
40
7C
40
40
40
46
FC
20
30
10
20
ENDCHAR
STARTCHAR 1E1D
ENCODING 7709
SWIDTH 470 0
DWIDTH 8 0
BBX 6 16 1 -4
BITMAP
84
48
38
00
38
44
84
FC
80
80
4C
70
20
10
30
20
ENDCHAR
STARTCHAR 1E1E
ENCODING 7710
SWIDTH 470 0
DWIDTH 8 0
BBX 7 13 1 0
BITMAP
20
20
00
FE
44
40
40
78
40
40
40
40
E0
ENDCHAR
STARTCHAR 1E1F
ENCODING 7711
SWIDTH 294 0
DWIDTH 5 0
BBX 6 15 1 0
BITMAP
40
60
1C
28
40
40
40
F0
40
40
40
40
40
40
F0
ENDCHAR
STARTCHAR 1E20
ENCODING 7712
SWIDTH 588 0
DWIDTH 10 0
BBX 9 13 1 0
BITMAP
3E00
0000
0000
1E00
6300
8000
8000
8000
8780
8100
8100
6100
3E00
ENDCHAR
STARTCHAR 1E21
ENCODING 7713
SWIDTH 470 0
DWIDTH 8 0
BBX 8 14 0 -4
BITMAP
3E
40
3F
46
82
82
C4
38
60
3C
C3
81
C2
7C
ENDCHAR
STARTCHAR 1E22
ENCODING 7714
SWIDTH 647 0
DWIDTH 11 0
BBX 9 13 1 0
BITMAP
1000
1800
0000
E380
4100
4100
4100
7F00
4100
4100
4100
4100
E380
ENDCHAR
STARTCHAR 1E23
ENCODING 7715
SWIDTH 529 0
DWIDTH 9 0
BBX 8 15 1 0
BITMAP
10
10
40
C0
40
40
40
4E
52
62
42
42
42
42
E7
ENDCHAR
STARTCHAR 1E24
ENCODING 7716
SWIDTH 647 0
DWIDTH 11 0
BBX 9 13 1 -3
BITMAP
E380
4100
4100
4100
7F00
4100
4100
4100
4100
E380
0000
1000
1800
ENDCHAR
STARTCHAR 1E25
ENCODING 7717
SWIDTH 529 0
DWIDTH 9 0
BBX 8 16 1 -3
BITMAP
40
C0
40
40
40
4E
52
62
42
42
42
42
E7
00
10
10
ENDCHAR
STARTCHAR 1E26
ENCODING 7718
SWIDTH 647 0
DWIDTH 11 0
BBX 9 13 1 0
BITMAP
4200
6200
0000
E380
4100
4100
4100
7F00
4100
4100
4100
4100
E380
ENDCHAR
STARTCHAR 1E27
ENCODING 7719
SWIDTH 529 0
DWIDTH 9 0
BBX 8 15 1 0
BITMAP
44
44
40
C0
40
40
40
4E
52
62
42
42
42
42
E7
ENDCHAR
STARTCHAR 1E2E
ENCODING 7726
SWIDTH 294 0
DWIDTH 5 0
BBX 5 17 0 0
BITMAP
18
30
40
00
88
88
00
70
20
20
20
20
20
20
20
20
70
ENDCHAR
STARTCHAR 1E2F
ENCODING 7727
SWIDTH 294 0
DWIDTH 5 0
BBX 5 15 0 0
BITMAP
18
30
20
00
88
88
00
20
60
20
20
20
20
20
70
ENDCHAR
STARTCHAR 1E30
ENCODING 7728
SWIDTH 588 0
DWIDTH 10 0
BBX 9 15 1 0
BITMAP
0400
0E00
1000
2000
0000
E700
4400
4800
5000
6000
5000
5800
4C00
4600
E380
ENDCHAR
STARTCHAR 1E31
ENCODING 7729
SWIDTH 529 0
DWIDTH 9 0
BBX 8 17 1 0
BITMAP
04
0C
30
00
40
C0
40
40
40
4E
48
50
60
50
48
4C
E7
ENDCHAR
STARTCHAR 1E32
ENCODING 7730
SWIDTH 588 0
DWIDTH 10 0
BBX 9 13 1 -3
BITMAP
E700
4400
4800
5000
6000
5000
5800
4C00
4600
E380
0000
1000
1000
ENDCHAR
STARTCHAR 1E33
ENCODING 7731
SWIDTH 529 0
DWIDTH 9 0
BBX 8 16 1 -3
BITMAP
40
C0
40
40
40
4E
48
50
60
50
48
4C
E7
00
20
30
ENDCHAR
STARTCHAR 1E34
ENCODING 7732
SWIDTH 588 0
DWIDTH 10 0
BBX 9 13 1 -3
BITMAP
E700
4400
4800
5000
6000
5000
5800
4C00
4600
E380
0000
0000
7E00
ENDCHAR
STARTCHAR 1E35
ENCODING 7733
SWIDTH 529 0
DWIDTH 9 0
BBX 8 16 1 -3
BITMAP
40
C0
40
40
40
4E
48
50
60
50
48
4C
E7
00
00
7C
ENDCHAR
STARTCHAR 1E36
ENCODING 7734
SWIDTH 470 0
DWIDTH 8 0
BBX 7 13 1 -3
BITMAP
E0
40
40
40
40
40
40
40
42
FE
00
20
20
ENDCHAR
STARTCHAR 1E37
ENCODING 7735
SWIDTH 294 0
DWIDTH 5 0
BBX 3 16 1 -3
BITMAP
40
C0
40
40
40
40
40
40
40
40
40
40
E0
00
80
80
ENDCHAR
STARTCHAR 1E38
ENCODING 7736
SWIDTH 470 0
DWIDTH 8 0
BBX 7 16 1 -3
BITMAP
FC
00
00
E0
40
40
40
40
40
40
40
42
FE
00
20
20
ENDCHAR
STARTCHAR 1E39
ENCODING 7737
SWIDTH 294 0
DWIDTH 5 0
BBX 5 18 0 -3
BITMAP
F8
00
20
60
20
20
20
20
20
20
20
20
20
20
70
00
40
40
ENDCHAR
STARTCHAR 1E3A
ENCODING 7738
SWIDTH 470 0
DWIDTH 8 0
BBX 7 13 1 -3
BITMAP
E0
40
40
40
40
40
40
40
42
FE
00
00
FC
ENDCHAR
STARTCHAR 1E3B
ENCODING 7739
SWIDTH 294 0
DWIDTH 5 0
BBX 5 16 0 -3
BITMAP
20
60
20
20
20
20
20
20
20
20
20
20
70
00
00
F8
ENDCHAR
STARTCHAR 1E3E
ENCODING 7742
SWIDTH 823 0
DWIDTH 14 0
BBX 12 15 1 0
BITMAP
0100
0380
0400
0800
0000
C070
6060
60E0
70E0
5160
5920
4A20
4E20
4420
E4F0
ENDCHAR
STARTCHAR 1E3F
ENCODING 7743
SWIDTH 823 0
DWIDTH 14 0
BBX 11 12 1 0
BITMAP
0100
0200
0400
0000
DDC0
6640
4440
4440
4440
4440
4440
EEE0
ENDCHAR
STARTCHAR 1E40
ENCODING 7744
SWIDTH 823 0
DWIDTH 14 0
BBX 12 13 1 0
BITMAP
0400
0400
0000
C070
6060
60E0
70E0
5160
5920
4A20
4E20
4420
E4F0
ENDCHAR
STARTCHAR 1E41
ENCODING 7745
SWIDTH 823 0
DWIDTH 14 0
BBX 11 11 1 0
BITMAP
0400
0400
0000
DDC0
6640
4440
4440
4440
4440
4440
EEE0
ENDCHAR
STARTCHAR 1E42
ENCODING 7746
SWIDTH 823 0
DWIDTH 14 0
BBX 12 13 1 -3
BITMAP
C070
6060
60E0
70E0
5160
5920
4A20
4E20
4420
C460
2090
0400
0400
ENDCHAR
STARTCHAR 1E43
ENCODING 7747
SWIDTH 823 0
DWIDTH 14 0
BBX 11 11 1 -3
BITMAP
DDC0
6640
4440
4440
4440
4440
4440
EEE0
0000
0400
0400
ENDCHAR
STARTCHAR 1E44
ENCODING 7748
SWIDTH 647 0
DWIDTH 11 0
BBX 9 13 1 0
BITMAP
1000
0800
0000
C380
6100
6100
5100
4900
4D00
4500
4300
4300
E100
ENDCHAR
STARTCHAR 1E45
ENCODING 7749
SWIDTH 529 0
DWIDTH 9 0
BBX 8 11 1 0
BITMAP
10
10
00
4E
D2
62
42
42
42
42
E7
ENDCHAR
STARTCHAR 1E46
ENCODING 7750
SWIDTH 647 0
DWIDTH 11 0
BBX 9 13 1 -3
BITMAP
C380
6100
6100
5100
4900
4D00
4500
4300
4300
4100
A000
0800
1000
ENDCHAR
STARTCHAR 1E47
ENCODING 7751
SWIDTH 529 0
DWIDTH 9 0
BBX 8 11 1 -3
BITMAP
4E
D2
62
42
42
42
42
E7
00
10
10
ENDCHAR
STARTCHAR 1E48
ENCODING 7752
SWIDTH 647 0
DWIDTH 11 0
BBX 9 13 1 -3
BITMAP
C380
6100
6100
5100
4900
4D00
4500
4300
4300
4100
A000
0000
3E00
ENDCHAR
STARTCHAR 1E49
ENCODING 7753
SWIDTH 529 0
DWIDTH 9 0
BBX 8 11 1 -3
BITMAP
4E
D2
62
42
42
42
42
E7
00
00
7E
ENDCHAR
STARTCHAR 1E4C
ENCODING 7756
SWIDTH 588 0
DWIDTH 10 0
BBX 8 17 1 0
BITMAP
06
08
30
12
32
4C
00
3C
42
81
81
81
81
81
82
42
3C
ENDCHAR
STARTCHAR 1E4D
ENCODING 7757
SWIDTH 529 0
DWIDTH 9 0
BBX 7 15 1 0
BITMAP
0C
08
10
00
34
D8
00
38
44
82
82
82
82
44
38
ENDCHAR
STARTCHAR 1E4E
ENCODING 7758
SWIDTH 588 0
DWIDTH 10 0
BBX 8 15 1 0
BITMAP
44
52
32
4C
00
3C
42
81
81
81
81
81
82
42
3C
ENDCHAR
STARTCHAR 1E4F
ENCODING 7759
SWIDTH 529 0
DWIDTH 9 0
BBX 7 14 1 0
BITMAP
84
84
00
34
D8
00
38
44
82
82
82
82
44
38
ENDCHAR
STARTCHAR 1E50
ENCODING 7760
SWIDTH 588 0
DWIDTH 10 0
BBX 8 17 1 0
BITMAP
60
18
0C
00
3E
40
00
3C
42
81
81
81
81
81
82
42
3C
ENDCHAR
STARTCHAR 1E51
ENCODING 7761
SWIDTH 529 0
DWIDTH 9 0
BBX 7 15 1 0
BITMAP
60
20
10
00
00
7C
00
38
44
82
82
82
82
44
38
ENDCHAR
STARTCHAR 1E52
ENCODING 7762
SWIDTH 588 0
DWIDTH 10 0
BBX 8 17 1 0
BITMAP
06
08
30
00
3E
40
00
3C
42
81
81
81
81
81
82
42
3C
ENDCHAR
STARTCHAR 1E53
ENCODING 7763
SWIDTH 529 0
DWIDTH 9 0
BBX 7 15 1 0
BITMAP
0C
08
10
00
00
7C
00
38
44
82
82
82
82
44
38
ENDCHAR
STARTCHAR 1E54
ENCODING 7764
SWIDTH 529 0
DWIDTH 9 0
BBX 7 15 1 0
BITMAP
08
0C
30
00
00
FC
46
42
42
46
78
40
40
40
E0
ENDCHAR
STARTCHAR 1E55
ENCODING 7765
SWIDTH 529 0
DWIDTH 9 0
BBX 7 16 1 -4
BITMAP
0C
18
10
00
5C
E6
42
42
42
42
44
78
40
40
40
E0
ENDCHAR
STARTCHAR 1E56
ENCODING 7766
SWIDTH 529 0
DWIDTH 9 0
BBX 7 13 1 0
BITMAP
20
20
00
FC
46
42
42
46
78
40
40
40
E0
ENDCHAR
STARTCHAR 1E57
ENCODING 7767
SWIDTH 529 0
DWIDTH 9 0
BBX 7 15 1 -4
BITMAP
20
20
00
5C
E6
42
42
42
42
44
78
40
40
40
E0
ENDCHAR
STARTCHAR 1E58
ENCODING 7768
SWIDTH 588 0
DWIDTH 10 0
BBX 9 13 1 0
BITMAP
2000
2000
0000
FC00
4600
4200
4200
4400
7800
4C00
4400
4600
E380
ENDCHAR
STARTCHAR 1E59
ENCODING 7769
SWIDTH 411 0
DWIDTH 7 0
BBX 6 11 1 0
BITMAP
20
20
00
DC
68
40
40
40
40
40
E0
ENDCHAR
STARTCHAR 1E5A
ENCODING 7770
SWIDTH 588 0
DWIDTH 10 0
BBX 9 13 1 -3
BITMAP
FC00
4600
4200
4200
4400
7800
4C00
4400
4600
E380
0000
2000
2000
ENDCHAR
STARTCHAR 1E5B
ENCODING 7771
SWIDTH 411 0
DWIDTH 7 0
BBX 6 11 1 -3
BITMAP
DC
68
40
40
40
40
40
E0
00
80
80
ENDCHAR
STARTCHAR 1E5C
ENCODING 7772
SWIDTH 588 0
DWIDTH 10 0
BBX 9 16 1 -3
BITMAP
7C00
0000
0000
FC00
4600
4200
4200
4400
7800
4C00
4400
4600
E380
0000
2000
2000
ENDCHAR
STARTCHAR 1E5D
ENCODING 7773
SWIDTH 411 0
DWIDTH 7 0
BBX 6 13 1 -3
BITMAP
FC
00
DC
68
40
40
40
40
40
E0
00
80
80
ENDCHAR
STARTCHAR 1E5E
ENCODING 7774
SWIDTH 588 0
DWIDTH 10 0
BBX 9 13 1 -3
BITMAP
FC00
4600
4200
4200
4400
7800
4C00
4400
4600
E380
0000
0000
7C00
ENDCHAR
STARTCHAR 1E5F
ENCODING 7775
SWIDTH 411 0
DWIDTH 7 0
BBX 8 11 -1 -3
BITMAP
37
1A
10
10
10
10
10
38
00
00
FC
ENDCHAR
STARTCHAR 1E60
ENCODING 7776
SWIDTH 470 0
DWIDTH 8 0
BBX 6 13 1 0
BITMAP
20
20
00
78
8C
80
C0
70
08
04
84
84
F8
ENDCHAR
STARTCHAR 1E61
ENCODING 7777
SWIDTH 411 0
DWIDTH 7 0
BBX 5 11 1 0
BITMAP
40
40
00
70
88
80
60
18
88
88
F0
ENDCHAR
STARTCHAR 1E62
ENCODING 7778
SWIDTH 470 0
DWIDTH 8 0
BBX 6 13 1 -3
BITMAP
78
8C
80
C0
70
08
04
84
84
F8
00
20
20
ENDCHAR
STARTCHAR 1E63
ENCODING 7779
SWIDTH 411 0
DWIDTH 7 0
BBX 5 11 1 -3
BITMAP
70
88
80
60
18
88
88
F0
00
40
40
ENDCHAR
STARTCHAR 1E64
ENCODING 7780
SWIDTH 470 0
DWIDTH 8 0
BBX 6 15 1 0
BITMAP
28
1C
30
00
00
78
8C
80
C0
70
08
04
84
84
F8
ENDCHAR
STARTCHAR 1E65
ENCODING 7781
SWIDTH 411 0
DWIDTH 7 0
BBX 5 14 1 0
BITMAP
40
40
18
30
40
00
70
88
80
60
18
88
88
F0
ENDCHAR
STARTCHAR 1E66
ENCODING 7782
SWIDTH 470 0
DWIDTH 8 0
BBX 6 15 1 0
BITMAP
A4
68
30
00
00
78
8C
80
C0
70
08
04
84
84
F8
ENDCHAR
STARTCHAR 1E67
ENCODING 7783
SWIDTH 411 0
DWIDTH 7 0
BBX 5 14 1 0
BITMAP
40
40
88
50
60
00
70
88
80
60
18
88
88
F0
ENDCHAR
STARTCHAR 1E68
ENCODING 7784
SWIDTH 470 0
DWIDTH 8 0
BBX 6 16 1 -3
BITMAP
20
20
00
78
8C
80
C0
70
08
04
84
84
F8
00
20
20
ENDCHAR
STARTCHAR 1E69
ENCODING 7785
SWIDTH 411 0
DWIDTH 7 0
BBX 5 14 1 -3
BITMAP
40
40
00
70
88
80
60
18
88
88
F0
00
40
40
ENDCHAR
STARTCHAR 1E6A
ENCODING 7786
SWIDTH 529 0
DWIDTH 9 0
BBX 9 13 0 0
BITMAP
1000
0800
0000
FF80
8880
0800
0800
0800
0800
0800
0800
0800
1C00
ENDCHAR
STARTCHAR 1E6B
ENCODING 7787
SWIDTH 352 0
DWIDTH 6 0
BBX 5 13 1 0
BITMAP
40
40
00
40
40
F8
40
40
40
40
40
40
78
ENDCHAR
STARTCHAR 1E6C
ENCODING 7788
SWIDTH 529 0
DWIDTH 9 0
BBX 9 13 0 -3
BITMAP
FF80
8880
0800
0800
0800
0800
0800
0800
0800
1C00
0000
0800
1000
ENDCHAR
STARTCHAR 1E6D
ENCODING 7789
SWIDTH 352 0
DWIDTH 6 0
BBX 5 13 1 -3
BITMAP
40
40
F8
40
40
40
40
40
40
78
00
40
40
ENDCHAR
STARTCHAR 1E6E
ENCODING 7790
SWIDTH 529 0
DWIDTH 9 0
BBX 9 13 0 -3
BITMAP
FF80
8880
0800
0800
0800
0800
0800
0800
0800
1C00
0000
0000
3E00
ENDCHAR
STARTCHAR 1E6F
ENCODING 7791
SWIDTH 352 0
DWIDTH 6 0
BBX 6 13 0 -3
BITMAP
20
20
7C
20
20
20
20
20
20
3C
00
00
FC
ENDCHAR
STARTCHAR 1E78
ENCODING 7800
SWIDTH 647 0
DWIDTH 11 0
BBX 9 17 1 0
BITMAP
0600
0C00
1000
1200
3A00
0400
0000
E380
4100
4100
4100
4100
4100
4100
4100
2200
3C00
ENDCHAR
STARTCHAR 1E79
ENCODING 7801
SWIDTH 529 0
DWIDTH 9 0
BBX 9 15 0 0
BITMAP
0600
0400
0800
0000
1A00
6C00
0000
C300
4100
4100
4100
4100
4100
4300
3D80
ENDCHAR
STARTCHAR 1E7A
ENCODING 7802
SWIDTH 647 0
DWIDTH 11 0
BBX 9 15 1 0
BITMAP
2200
4200
3E00
0100
0000
E380
4100
4100
4100
4100
4100
4100
4100
2200
3C00
ENDCHAR
STARTCHAR 1E7B
ENCODING 7803
SWIDTH 529 0
DWIDTH 9 0
BBX 9 14 0 0
BITMAP
2200
4200
0000
0000
3E00
0000
C300
4100
4100
4100
4100
4100
4300
3D80
ENDCHAR
STARTCHAR 1E7C
ENCODING 7804
SWIDTH 647 0
DWIDTH 11 0
BBX 11 14 0 0
BITMAP
0900
1D00
0200
0000
F1E0
2080
2080
3100
1100
1900
0A00
0A00
0E00
0400
ENDCHAR
STARTCHAR 1E7D
ENCODING 7805
SWIDTH 470 0
DWIDTH 8 0
BBX 8 11 0 0
BITMAP
1A
6C
00
E3
62
22
24
34
14
18
08
ENDCHAR
STARTCHAR 1E7E
ENCODING 7806
SWIDTH 647 0
DWIDTH 11 0
BBX 11 13 0 -3
BITMAP
F1E0
2080
2080
3100
1100
1900
0A00
0A00
0E00
0400
0000
0800
0800
ENDCHAR
STARTCHAR 1E7F
ENCODING 7807
SWIDTH 470 0
DWIDTH 8 0
BBX 8 11 0 -3
BITMAP
E3
62
22
24
34
14
18
08
00
10
10
ENDCHAR
STARTCHAR 1E80
ENCODING 7808
SWIDTH 823 0
DWIDTH 14 0
BBX 14 15 0 0
BITMAP
0400
0E00
0100
0080
0000
F11C
6308
2310
2390
2490
3490
1450
1860
1860
1820
ENDCHAR
STARTCHAR 1E81
ENCODING 7809
SWIDTH 705 0
DWIDTH 12 0
BBX 12 12 0 0
BITMAP
0C00
0400
0200
0000
E270
6620
2620
2740
2940
3940
1880
1080
ENDCHAR
STARTCHAR 1E82
ENCODING 7810
SWIDTH 823 0
DWIDTH 14 0
BBX 14 15 0 0
BITMAP
0080
01C0
0300
0000
0000
F11C
6308
2310
2390
2490
3490
1450
1860
1860
1820
ENDCHAR
STARTCHAR 1E83
ENCODING 7811
SWIDTH 705 0
DWIDTH 12 0
BBX 12 12 0 0
BITMAP
0180
0300
0400
0000
E270
6620
2620
2740
2940
3940
1880
1080
ENDCHAR
STARTCHAR 1E84
ENCODING 7812
SWIDTH 823 0
DWIDTH 14 0
BBX 14 13 0 0
BITMAP
0880
0880
0000
F11C
6308
2310
2390
2490
3490
1450
1860
1860
1820
ENDCHAR
STARTCHAR 1E85
ENCODING 7813
SWIDTH 705 0
DWIDTH 12 0
BBX 12 11 0 0
BITMAP
1100
1180
0000
E270
6620
2620
2740
2940
3940
1880
1080
ENDCHAR
STARTCHAR 1E86
ENCODING 7814
SWIDTH 823 0
DWIDTH 14 0
BBX 14 13 0 0
BITMAP
0200
0200
0000
F11C
6308
2310
2390
2490
3490
1450
1860
1860
1820
ENDCHAR
STARTCHAR 1E87
ENCODING 7815
SWIDTH 705 0
DWIDTH 12 0
BBX 12 11 0 0
BITMAP
0400
0400
0000
E270
6620
2620
2740
2940
3940
1880
1080
ENDCHAR
STARTCHAR 1E88
ENCODING 7816
SWIDTH 823 0
DWIDTH 14 0
BBX 14 13 0 -3
BITMAP
F11C
6308
2310
2390
2490
3490
1450
1860
1860
1820
0000
0200
0200
ENDCHAR
STARTCHAR 1E89
ENCODING 7817
SWIDTH 705 0
DWIDTH 12 0
BBX 12 11 0 -3
BITMAP
E270
6620
2620
2740
2940
3940
1880
1080
0000
0400
0400
ENDCHAR
STARTCHAR 1E8A
ENCODING 7818
SWIDTH 588 0
DWIDTH 10 0
BBX 10 13 0 0
BITMAP
0800
0800
0000
F3C0
2100
3300
1A00
0C00
0C00
1200
3100
2180
F3C0
ENDCHAR
STARTCHAR 1E8B
ENCODING 7819
SWIDTH 529 0
DWIDTH 9 0
BBX 8 11 0 0
BITMAP
10
10
00
F7
22
34
18
1C
24
42
E7
ENDCHAR
STARTCHAR 1E8C
ENCODING 7820
SWIDTH 588 0
DWIDTH 10 0
BBX 10 13 0 0
BITMAP
2200
2300
0000
F3C0
2100
3300
1A00
0C00
0C00
1200
3100
2180
F3C0
ENDCHAR
STARTCHAR 1E8D
ENCODING 7821
SWIDTH 529 0
DWIDTH 9 0
BBX 8 11 0 0
BITMAP
42
42
00
F7
22
34
18
1C
24
42
E7
ENDCHAR
STARTCHAR 1E8E
ENCODING 7822
SWIDTH 588 0
DWIDTH 10 0
BBX 9 13 1 0
BITMAP
1000
1000
0000
C380
6100
3200
1600
1C00
0800
0800
0800
0800
1C00
ENDCHAR
STARTCHAR 1E8F
ENCODING 7823
SWIDTH 470 0
DWIDTH 8 0
BBX 8 15 0 -4
BITMAP
10
10
00
E7
62
22
24
34
14
18
08
08
10
A0
C0
ENDCHAR
STARTCHAR 1E90
ENCODING 7824
SWIDTH 529 0
DWIDTH 9 0
BBX 8 15 0 0
BITMAP
08
1C
22
00
00
7F
42
46
04
08
18
10
21
61
FF
ENDCHAR
STARTCHAR 1E91
ENCODING 7825
SWIDTH 470 0
DWIDTH 8 0
BBX 6 12 1 0
BITMAP
30
48
88
04
FC
88
10
30
20
40
C4
FC
ENDCHAR
STARTCHAR 1E92
ENCODING 7826
SWIDTH 529 0
DWIDTH 9 0
BBX 8 13 0 -3
BITMAP
7F
42
46
04
08
18
10
21
61
7F
80
10
10
ENDCHAR
STARTCHAR 1E93
ENCODING 7827
SWIDTH 470 0
DWIDTH 8 0
BBX 6 11 1 -3
BITMAP
FC
88
10
30
20
40
C4
FC
00
20
20
ENDCHAR
STARTCHAR 1E94
ENCODING 7828
SWIDTH 529 0
DWIDTH 9 0
BBX 8 13 0 -3
BITMAP
7F
42
46
04
08
18
10
21
61
7F
80
00
3E
ENDCHAR
STARTCHAR 1E95
ENCODING 7829
SWIDTH 470 0
DWIDTH 8 0
BBX 6 11 1 -3
BITMAP
FC
88
10
30
20
40
C4
FC
00
00
FC
ENDCHAR
STARTCHAR 1E96
ENCODING 7830
SWIDTH 529 0
DWIDTH 9 0
BBX 8 16 1 -3
BITMAP
40
C0
40
40
40
4E
52
62
42
42
42
42
E7
00
00
7E
ENDCHAR
STARTCHAR 1E97
ENCODING 7831
SWIDTH 352 0
DWIDTH 6 0
BBX 6 13 0 0
BITMAP
88
88
00
20
20
7C
20
20
20
20
20
20
3C
ENDCHAR
STARTCHAR 1E98
ENCODING 7832
SWIDTH 705 0
DWIDTH 12 0
BBX 12 12 0 0
BITMAP
0600
0B00
0600
0000
E270
6620
2620
2740
2940
3940
1880
1080
ENDCHAR
STARTCHAR 1E99
ENCODING 7833
SWIDTH 470 0
DWIDTH 8 0
BBX 8 16 0 -4
BITMAP
18
24
18
00
E7
62
22
24
34
14
18
08
08
10
A0
C0
ENDCHAR
STARTCHAR 1EA0
ENCODING 7840
SWIDTH 588 0
DWIDTH 10 0
BBX 10 13 0 -3
BITMAP
0400
0C00
1400
1200
1200
1E00
2100
2100
4180
6180
8240
0800
0800
ENDCHAR
STARTCHAR 1EA1
ENCODING 7841
SWIDTH 470 0
DWIDTH 8 0
BBX 7 11 1 -3
BITMAP
1C
64
04
1C
64
84
8C
76
00
20
20
ENDCHAR
STARTCHAR 1EA2
ENCODING 7842
SWIDTH 588 0
DWIDTH 10 0
BBX 10 15 0 0
BITMAP
0400
1C00
0800
0000
0000
0400
0C00
1400
1200
1200
1E00
2100
2100
4180
E3C0
ENDCHAR
STARTCHAR 1EA3
ENCODING 7843
SWIDTH 470 0
DWIDTH 8 0
BBX 7 12 1 0
BITMAP
30
50
20
00
1C
64
04
1C
64
84
8C
76
ENDCHAR
STARTCHAR 1EA4
ENCODING 7844
SWIDTH 588 0
DWIDTH 10 0
BBX 10 18 0 0
BITMAP
0300
0600
0800
1C00
0C00
1200
2100
0000
0400
0C00
1400
1200
1200
1E00
2100
2100
4180
E3C0
ENDCHAR
STARTCHAR 1EA5
ENCODING 7845
SWIDTH 470 0
DWIDTH 8 0
BBX 7 16 1 0
BITMAP
08
18
20
00
30
48
88
04
1C
64
04
1C
64
84
8C
76
ENDCHAR
STARTCHAR 1EA6
ENCODING 7846
SWIDTH 588 0
DWIDTH 10 0
BBX 10 18 0 0
BITMAP
3000
1800
0400
0C00
0C00
1200
2100
0000
0400
0C00
1400
1200
1200
1E00
2100
2100
4180
E3C0
ENDCHAR
STARTCHAR 1EA7
ENCODING 7847
SWIDTH 470 0
DWIDTH 8 0
BBX 7 16 1 0
BITMAP
40
60
10
00
30
48
88
04
1C
64
04
1C
64
84
8C
76
ENDCHAR
STARTCHAR 1EA8
ENCODING 7848
SWIDTH 588 0
DWIDTH 10 0
BBX 10 18 0 0
BITMAP
0C00
1400
0800
0C00
0C00
1200
2100
0000
0400
0C00
1400
1200
1200
1E00
2100
2100
4180
E3C0
ENDCHAR
STARTCHAR 1EA9
ENCODING 7849
SWIDTH 470 0
DWIDTH 8 0
BBX 7 16 1 0
BITMAP
30
50
20
00
30
48
88
04
1C
64
04
1C
64
84
8C
76
ENDCHAR
STARTCHAR 1EAA
ENCODING 7850
SWIDTH 588 0
DWIDTH 10 0
BBX 10 17 0 0
BITMAP
1900
3E00
0C00
0C00
1200
2100
0000
0400
0C00
1400
1200
1200
1E00
2100
2100
4180
E3C0
ENDCHAR
STARTCHAR 1EAB
ENCODING 7851
SWIDTH 470 0
DWIDTH 8 0
BBX 7 15 1 0
BITMAP
64
B8
00
30
48
88
04
1C
64
04
1C
64
84
8C
76
ENDCHAR
STARTCHAR 1EAC
ENCODING 7852
SWIDTH 588 0
DWIDTH 10 0
BBX 10 18 0 -3
BITMAP
0C00
0C00
1200
2100
0000
0400
0C00
1400
1200
1200
1E00
2100
2100
4180
6180
8240
0800
0800
ENDCHAR
STARTCHAR 1EAD
ENCODING 7853
SWIDTH 470 0
DWIDTH 8 0
BBX 7 15 1 -3
BITMAP
30
48
88
04
1C
64
04
1C
64
84
8C
76
00
20
20
ENDCHAR
STARTCHAR 1EAE
ENCODING 7854
SWIDTH 588 0
DWIDTH 10 0
BBX 10 17 0 0
BITMAP
0300
0C00
3200
2300
1E00
0000
0000
0400
0C00
1400
1200
1200
1E00
2100
2100
4180
E3C0
ENDCHAR
STARTCHAR 1EAF
ENCODING 7855
SWIDTH 470 0
DWIDTH 8 0
BBX 7 15 1 0
BITMAP
08
18
10
A4
48
30
00
1C
64
04
1C
64
84
8C
76
ENDCHAR
STARTCHAR 1EB0
ENCODING 7856
SWIDTH 588 0
DWIDTH 10 0
BBX 10 17 0 0
BITMAP
3000
0800
2600
2300
1E00
0000
0000
0400
0C00
1400
1200
1200
1E00
2100
2100
4180
E3C0
ENDCHAR
STARTCHAR 1EB1
ENCODING 7857
SWIDTH 470 0
DWIDTH 8 0
BBX 7 15 1 0
BITMAP
40
60
20
94
48
30
00
1C
64
04
1C
64
84
8C
76
ENDCHAR
STARTCHAR 1EB2
ENCODING 7858
SWIDTH 588 0
DWIDTH 10 0
BBX 10 17 0 0
BITMAP
0C00
1800
2A00
2300
1E00
0000
0000
0400
0C00
1400
1200
1200
1E00
2100
2100
4180
E3C0
ENDCHAR
STARTCHAR 1EB3
ENCODING 7859
SWIDTH 470 0
DWIDTH 8 0
BBX 7 15 1 0
BITMAP
10
70
20
84
48
30
00
1C
64
04
1C
64
84
8C
76
ENDCHAR
STARTCHAR 1EB4
ENCODING 7860
SWIDTH 588 0
DWIDTH 10 0
BBX 10 17 0 0
BITMAP
0900
3E00
0000
2300
1E00
0000
0000
0400
0C00
1400
1200
1200
1E00
2100
2100
4180
E3C0
ENDCHAR
STARTCHAR 1EB5
ENCODING 7861
SWIDTH 470 0
DWIDTH 8 0
BBX 7 14 1 0
BITMAP
24
F8
84
48
30
00
1C
64
04
1C
64
84
8C
76
ENDCHAR
STARTCHAR 1EB6
ENCODING 7862
SWIDTH 588 0
DWIDTH 10 0
BBX 10 18 0 -3
BITMAP
2200
2300
1E00
0000
0000
0400
0C00
1400
1200
1200
1E00
2100
2100
4180
6180
8240
0800
0800
ENDCHAR
STARTCHAR 1EB7
ENCODING 7863
SWIDTH 470 0
DWIDTH 8 0
BBX 7 15 1 -3
BITMAP
84
48
30
00
1C
64
04
1C
64
84
8C
76
00
20
20
ENDCHAR
STARTCHAR 1EB8
ENCODING 7864
SWIDTH 470 0
DWIDTH 8 0
BBX 7 13 1 -3
BITMAP
FC
44
40
40
7C
40
40
40
42
FE
00
20
20
ENDCHAR
STARTCHAR 1EB9
ENCODING 7865
SWIDTH 470 0
DWIDTH 8 0
BBX 6 11 1 -3
BITMAP
38
44
84
FC
80
80
44
78
00
20
20
ENDCHAR
STARTCHAR 1EBA
ENCODING 7866
SWIDTH 470 0
DWIDTH 8 0
BBX 7 15 1 0
BITMAP
10
30
60
10
00
FC
44
40
40
7C
40
40
40
42
FE
ENDCHAR
STARTCHAR 1EBB
ENCODING 7867
SWIDTH 470 0
DWIDTH 8 0
BBX 6 12 1 0
BITMAP
30
58
20
10
38
44
84
FC
80
80
44
78
ENDCHAR
STARTCHAR 1EBC
ENCODING 7868
SWIDTH 470 0
DWIDTH 8 0
BBX 7 14 1 0
BITMAP
24
74
88
00
FC
44
40
40
7C
40
40
40
42
FE
ENDCHAR
STARTCHAR 1EBD
ENCODING 7869
SWIDTH 470 0
DWIDTH 8 0
BBX 6 11 1 0
BITMAP
74
98
00
38
44
84
FC
80
80
44
78
ENDCHAR
STARTCHAR 1EBE
ENCODING 7870
SWIDTH 470 0
DWIDTH 8 0
BBX 7 18 1 0
BITMAP
0C
18
20
10
38
48
04
00
FC
44
40
40
7C
40
40
40
42
FE
ENDCHAR
STARTCHAR 1EBF
ENCODING 7871
SWIDTH 470 0
DWIDTH 8 0
BBX 6 16 1 0
BITMAP
0C
18
10
20
30
48
84
00
38
44
84
FC
80
80
44
78
ENDCHAR
STARTCHAR 1EC0
ENCODING 7872
SWIDTH 470 0
DWIDTH 8 0
BBX 7 18 1 0
BITMAP
40
E0
10
18
38
48
04
00
FC
44
40
40
7C
40
40
40
42
FE
ENDCHAR
STARTCHAR 1EC1
ENCODING 7873
SWIDTH 470 0
DWIDTH 8 0
BBX 6 16 1 0
BITMAP
40
20
10
00
30
48
84
00
38
44
84
FC
80
80
44
78
ENDCHAR
STARTCHAR 1EC2
ENCODING 7874
SWIDTH 470 0
DWIDTH 8 0
BBX 7 18 1 0
BITMAP
30
50
20
10
38
48
04
00
FC
44
40
40
7C
40
40
40
42
FE
ENDCHAR
STARTCHAR 1EC3
ENCODING 7875
SWIDTH 470 0
DWIDTH 8 0
BBX 6 16 1 0
BITMAP
10
78
20
10
30
48
84
00
38
44
84
FC
80
80
44
78
ENDCHAR
STARTCHAR 1EC4
ENCODING 7876
SWIDTH 470 0
DWIDTH 8 0
BBX 7 17 1 0
BITMAP
64
78
90
38
48
04
00
FC
44
40
40
7C
40
40
40
42
FE
ENDCHAR
STARTCHAR 1EC5
ENCODING 7877
SWIDTH 470 0
DWIDTH 8 0
BBX 6 15 1 0
BITMAP
24
D8
00
30
48
84
00
38
44
84
FC
80
80
44
78
ENDCHAR
STARTCHAR 1EC6
ENCODING 7878
SWIDTH 470 0
DWIDTH 8 0
BBX 7 18 1 -3
BITMAP
10
38
48
04
00
FC
44
40
40
7C
40
40
40
42
FE
00
20
20
ENDCHAR
STARTCHAR 1EC7
ENCODING 7879
SWIDTH 470 0
DWIDTH 8 0
BBX 6 15 1 -3
BITMAP
30
48
84
00
38
44
84
FC
80
80
44
78
00
20
20
ENDCHAR
STARTCHAR 1EC8
ENCODING 7880
SWIDTH 294 0
DWIDTH 5 0
BBX 3 15 1 0
BITMAP
40
A0
40
80
00
E0
40
40
40
40
40
40
40
40
E0
ENDCHAR
STARTCHAR 1EC9
ENCODING 7881
SWIDTH 294 0
DWIDTH 5 0
BBX 3 12 1 0
BITMAP
60
C0
80
40
40
C0
40
40
40
40
40
E0
ENDCHAR
STARTCHAR 1ECA
ENCODING 7882
SWIDTH 294 0
DWIDTH 5 0
BBX 3 13 1 -3
BITMAP
E0
40
40
40
40
40
40
40
40
E0
00
80
80
ENDCHAR
STARTCHAR 1ECB
ENCODING 7883
SWIDTH 294 0
DWIDTH 5 0
BBX 3 14 1 -3
BITMAP
40
C0
00
40
C0
40
40
40
40
40
E0
00
80
80
ENDCHAR
STARTCHAR 1ECC
ENCODING 7884
SWIDTH 588 0
DWIDTH 10 0
BBX 8 13 1 -3
BITMAP
3C
42
81
81
81
81
81
82
42
3C
00
10
10
ENDCHAR
STARTCHAR 1ECD
ENCODING 7885
SWIDTH 529 0
DWIDTH 9 0
BBX 7 11 1 -3
BITMAP
38
44
82
82
82
82
44
38
00
20
20
ENDCHAR
STARTCHAR 1ECE
ENCODING 7886
SWIDTH 588 0
DWIDTH 10 0
BBX 8 15 1 0
BITMAP
08
38
10
08
00
3C
42
81
81
81
81
81
82
42
3C
ENDCHAR
STARTCHAR 1ECF
ENCODING 7887
SWIDTH 529 0
DWIDTH 9 0
BBX 7 12 1 0
BITMAP
18
30
20
10
38
44
82
82
82
82
44
38
ENDCHAR
STARTCHAR 1ED0
ENCODING 7888
SWIDTH 588 0
DWIDTH 10 0
BBX 8 18 1 0
BITMAP
06
0C
10
08
1C
24
42
00
3C
42
81
81
81
81
81
82
42
3C
ENDCHAR
STARTCHAR 1ED1
ENCODING 7889
SWIDTH 529 0
DWIDTH 9 0
BBX 7 16 1 0
BITMAP
0C
08
10
00
10
28
44
00
38
44
82
82
82
82
44
38
ENDCHAR
STARTCHAR 1ED2
ENCODING 7890
SWIDTH 588 0
DWIDTH 10 0
BBX 8 18 1 0
BITMAP
20
70
08
0C
1C
24
42
00
3C
42
81
81
81
81
81
82
42
3C
ENDCHAR
STARTCHAR 1ED3
ENCODING 7891
SWIDTH 529 0
DWIDTH 9 0
BBX 7 16 1 0
BITMAP
60
20
10
00
10
28
44
00
38
44
82
82
82
82
44
38
ENDCHAR
STARTCHAR 1ED4
ENCODING 7892
SWIDTH 588 0
DWIDTH 10 0
BBX 8 18 1 0
BITMAP
18
28
10
08
1C
24
42
00
3C
42
81
81
81
81
81
82
42
3C
ENDCHAR
STARTCHAR 1ED5
ENCODING 7893
SWIDTH 529 0
DWIDTH 9 0
BBX 7 16 1 0
BITMAP
10
28
30
10
10
28
44
00
38
44
82
82
82
82
44
38
ENDCHAR
STARTCHAR 1ED6
ENCODING 7894
SWIDTH 588 0
DWIDTH 10 0
BBX 8 17 1 0
BITMAP
32
7C
08
1C
24
42
00
3C
42
81
81
81
81
81
82
42
3C
ENDCHAR
STARTCHAR 1ED7
ENCODING 7895
SWIDTH 529 0
DWIDTH 9 0
BBX 7 15 1 0
BITMAP
24
5C
00
10
28
44
00
38
44
82
82
82
82
44
38
ENDCHAR
STARTCHAR 1ED8
ENCODING 7896
SWIDTH 588 0
DWIDTH 10 0
BBX 8 18 1 -3
BITMAP
08
1C
24
42
00
3C
42
81
81
81
81
81
82
42
3C
00
10
10
ENDCHAR
STARTCHAR 1ED9
ENCODING 7897
SWIDTH 529 0
DWIDTH 9 0
BBX 7 15 1 -3
BITMAP
10
28
44
00
38
44
82
82
82
82
44
38
00
20
20
ENDCHAR
STARTCHAR 1EDA
ENCODING 7898
SWIDTH 588 0
DWIDTH 10 0
BBX 9 15 1 0
BITMAP
0400
0E00
1800
0080
0180
1F00
6200
8100
8100
8100
8100
8100
8200
4200
3C00
ENDCHAR
STARTCHAR 1EDB
ENCODING 7899
SWIDTH 529 0
DWIDTH 9 0
BBX 8 12 1 0
BITMAP
0C
08
11
01
3E
46
82
82
82
82
44
38
ENDCHAR
STARTCHAR 1EDC
ENCODING 7900
SWIDTH 588 0
DWIDTH 10 0
BBX 9 15 1 0
BITMAP
2000
7000
0800
0480
0180
1F00
6200
8100
8100
8100
8100
8100
8200
4200
3C00
ENDCHAR
STARTCHAR 1EDD
ENCODING 7901
SWIDTH 529 0
DWIDTH 9 0
BBX 8 12 1 0
BITMAP
60
20
11
01
3E
46
82
82
82
82
44
38
ENDCHAR
STARTCHAR 1EDE
ENCODING 7902
SWIDTH 588 0
DWIDTH 10 0
BBX 9 15 1 0
BITMAP
0800
3800
1000
0880
0180
1F00
6200
8100
8100
8100
8100
8100
8200
4200
3C00
ENDCHAR
STARTCHAR 1EDF
ENCODING 7903
SWIDTH 529 0
DWIDTH 9 0
BBX 8 12 1 0
BITMAP
18
30
21
11
3E
46
82
82
82
82
44
38
ENDCHAR
STARTCHAR 1EE0
ENCODING 7904
SWIDTH 588 0
DWIDTH 10 0
BBX 9 14 1 0
BITMAP
1200
3200
4C80
0180
1F00
6200
8100
8100
8100
8100
8100
8200
4200
3C00
ENDCHAR
STARTCHAR 1EE1
ENCODING 7905
SWIDTH 529 0
DWIDTH 9 0
BBX 8 11 1 0
BITMAP
34
D9
01
3E
46
82
82
82
82
44
38
ENDCHAR
STARTCHAR 1EE2
ENCODING 7906
SWIDTH 588 0
DWIDTH 10 0
BBX 9 15 1 -3
BITMAP
0080
0180
1F00
6200
8100
8100
8100
8100
8100
8200
4200
3C00
0000
1000
1000
ENDCHAR
STARTCHAR 1EE3
ENCODING 7907
SWIDTH 529 0
DWIDTH 9 0
BBX 8 13 1 -3
BITMAP
01
01
3E
46
82
82
82
82
44
38
00
20
20
ENDCHAR
STARTCHAR 1EE4
ENCODING 7908
SWIDTH 647 0
DWIDTH 11 0
BBX 9 13 1 -3
BITMAP
E380
4100
4100
4100
4100
4100
4100
4100
2200
3C00
0000
0800
0800
ENDCHAR
STARTCHAR 1EE5
ENCODING 7909
SWIDTH 529 0
DWIDTH 9 0
BBX 9 11 0 -3
BITMAP
C300
4100
4100
4100
4100
4100
4300
3D80
0000
0800
1000
ENDCHAR
STARTCHAR 1EE6
ENCODING 7910
SWIDTH 647 0
DWIDTH 11 0
BBX 9 15 1 0
BITMAP
0800
1400
0800
0000
0000
E380
4100
4100
4100
4100
4100
4100
4100
2200
3C00
ENDCHAR
STARTCHAR 1EE7
ENCODING 7911
SWIDTH 529 0
DWIDTH 9 0
BBX 9 12 0 0
BITMAP
0C00
1800
0800
0000
C300
4100
4100
4100
4100
4100
4300
3D80
ENDCHAR
STARTCHAR 1EE8
ENCODING 7912
SWIDTH 705 0
DWIDTH 12 0
BBX 11 15 1 0
BITMAP
0200
0600
0800
1020
0060
E1C0
4080
4080
4080
4080
4080
4080
4080
2100
1E00
ENDCHAR
STARTCHAR 1EE9
ENCODING 7913
SWIDTH 588 0
DWIDTH 10 0
BBX 9 12 1 0
BITMAP
0C00
0800
1080
0180
CD00
4600
4400
4400
4400
4400
4C00
7700
ENDCHAR
STARTCHAR 1EEA
ENCODING 7914
SWIDTH 705 0
DWIDTH 12 0
BBX 11 15 1 0
BITMAP
2000
3000
0C00
0020
0060
E1C0
4080
4080
4080
4080
4080
4080
4080
2100
1E00
ENDCHAR
STARTCHAR 1EEB
ENCODING 7915
SWIDTH 588 0
DWIDTH 10 0
BBX 9 12 1 0
BITMAP
6000
3000
1080
0180
CD00
4600
4400
4400
4400
4400
4C00
7700
ENDCHAR
STARTCHAR 1EEC
ENCODING 7916
SWIDTH 705 0
DWIDTH 12 0
BBX 11 15 1 0
BITMAP
0800
1400
0800
0020
0060
E1C0
4080
4080
4080
4080
4080
4080
4080
2100
1E00
ENDCHAR
STARTCHAR 1EED
ENCODING 7917
SWIDTH 588 0
DWIDTH 10 0
BBX 9 12 1 0
BITMAP
1800
3000
1080
0180
CD00
4600
4400
4400
4400
4400
4C00
7700
ENDCHAR
STARTCHAR 1EEE
ENCODING 7918
SWIDTH 705 0
DWIDTH 12 0
BBX 11 14 1 0
BITMAP
1200
3A00
0420
0060
E1C0
4080
4080
4080
4080
4080
4080
4080
2100
1E00
ENDCHAR
STARTCHAR 1EEF
ENCODING 7919
SWIDTH 588 0
DWIDTH 10 0
BBX 9 11 1 0
BITMAP
3400
D880
0180
CD00
4600
4400
4400
4400
4400
4C00
7700
ENDCHAR
STARTCHAR 1EF0
ENCODING 7920
SWIDTH 705 0
DWIDTH 12 0
BBX 11 15 1 -3
BITMAP
0020
0060
E1C0
4080
4080
4080
4080
4080
4080
4080
2100
1E00
0000
0800
0800
ENDCHAR
STARTCHAR 1EF1
ENCODING 7921
SWIDTH 588 0
DWIDTH 10 0
BBX 9 13 1 -3
BITMAP
0080
0180
CD00
4600
4400
4400
4400
4400
4C00
7700
0000
1000
2000
ENDCHAR
STARTCHAR 1EF2
ENCODING 7922
SWIDTH 588 0
DWIDTH 10 0
BBX 9 15 1 0
BITMAP
4000
3000
1800
0000
0000
C380
6100
3200
1600
1C00
0800
0800
0800
0800
1C00
ENDCHAR
STARTCHAR 1EF3
ENCODING 7923
SWIDTH 470 0
DWIDTH 8 0
BBX 8 16 0 -4
BITMAP
30
10
08
00
E7
62
22
24
34
14
18
08
08
10
A0
C0
ENDCHAR
STARTCHAR 1EF4
ENCODING 7924
SWIDTH 588 0
DWIDTH 10 0
BBX 9 13 1 -3
BITMAP
C380
6100
3200
1600
1C00
0800
0800
0800
0800
1C00
0000
1000
1000
ENDCHAR
STARTCHAR 1EF5
ENCODING 7925
SWIDTH 470 0
DWIDTH 8 0
BBX 8 12 0 -4
BITMAP
E7
62
22
24
34
14
18
08
08
14
A4
C0
ENDCHAR
STARTCHAR 1EF6
ENCODING 7926
SWIDTH 588 0
DWIDTH 10 0
BBX 9 15 1 0
BITMAP
0800
3800
1000
0000
0000
C380
6100
3200
1600
1C00
0800
0800
0800
0800
1C00
ENDCHAR
STARTCHAR 1EF7
ENCODING 7927
SWIDTH 470 0
DWIDTH 8 0
BBX 8 16 0 -4
BITMAP
0C
18
10
08
E7
62
22
24
34
14
18
08
08
10
A0
C0
ENDCHAR
STARTCHAR 1EF8
ENCODING 7928
SWIDTH 588 0
DWIDTH 10 0
BBX 9 14 1 0
BITMAP
1400
3200
4C00
0000
C380
6100
3200
1600
1C00
0800
0800
0800
0800
1C00
ENDCHAR
STARTCHAR 1EF9
ENCODING 7929
SWIDTH 470 0
DWIDTH 8 0
BBX 8 15 0 -4
BITMAP
3A
4C
00
E7
62
22
24
34
14
18
08
08
10
A0
C0
ENDCHAR
STARTCHAR 2011
ENCODING 8209
SWIDTH 352 0
DWIDTH 6 0
BBX 4 1 1 4
BITMAP
F0
ENDCHAR
STARTCHAR 2013
ENCODING 8211
SWIDTH 470 0
DWIDTH 8 0
BBX 6 1 1 4
BITMAP
FC
ENDCHAR
STARTCHAR 2014
ENCODING 8212
SWIDTH 764 0
DWIDTH 13 0
BBX 12 1 1 4
BITMAP
FFF0
ENDCHAR
STARTCHAR 2018
ENCODING 8216
SWIDTH 235 0
DWIDTH 4 0
BBX 2 4 1 8
BITMAP
80
80
80
C0
ENDCHAR
STARTCHAR 2019
ENCODING 8217
SWIDTH 235 0
DWIDTH 4 0
BBX 2 4 1 8
BITMAP
C0
40
40
80
ENDCHAR
STARTCHAR 201A
ENCODING 8218
SWIDTH 235 0
DWIDTH 4 0
BBX 2 4 1 -2
BITMAP
C0
40
40
80
ENDCHAR
STARTCHAR 201C
ENCODING 8220
SWIDTH 411 0
DWIDTH 7 0
BBX 5 4 1 8
BITMAP
88
90
90
D8
ENDCHAR
STARTCHAR 201D
ENCODING 8221
SWIDTH 411 0
DWIDTH 7 0
BBX 5 4 1 8
BITMAP
D8
48
48
90
ENDCHAR
STARTCHAR 201E
ENCODING 8222
SWIDTH 470 0
DWIDTH 8 0
BBX 6 4 1 -2
BITMAP
CC
44
44
88
ENDCHAR
STARTCHAR 2020
ENCODING 8224
SWIDTH 470 0
DWIDTH 8 0
BBX 7 12 1 0
BITMAP
10
10
10
FE
10
10
10
10
10
10
10
10
ENDCHAR
STARTCHAR 2021
ENCODING 8225
SWIDTH 470 0
DWIDTH 8 0
BBX 7 12 1 0
BITMAP
10
10
10
FE
10
10
10
10
FE
10
10
10
ENDCHAR
STARTCHAR 2022
ENCODING 8226
SWIDTH 294 0
DWIDTH 5 0
BBX 3 4 1 3
BITMAP
E0
E0
E0
C0
ENDCHAR
STARTCHAR 2026
ENCODING 8230
SWIDTH 647 0
DWIDTH 11 0
BBX 8 2 2 0
BITMAP
91
91
ENDCHAR
STARTCHAR 2030
ENCODING 8240
SWIDTH 1000 0
DWIDTH 17 0
BBX 15 10 1 0
BITMAP
6080
9100
9200
9600
658C
0A52
1252
3252
2252
418C
ENDCHAR
STARTCHAR 2039
ENCODING 8249
SWIDTH 294 0
DWIDTH 5 0
BBX 3 8 1 0
BITMAP
20
40
40
80
80
40
40
20
ENDCHAR
STARTCHAR 203A
ENCODING 8250
SWIDTH 294 0
DWIDTH 5 0
BBX 4 8 1 0
BITMAP
80
40
60
20
30
60
40
80
ENDCHAR
STARTCHAR 2044
ENCODING 8260
SWIDTH 588 0
DWIDTH 10 0
BBX 7 10 2 0
BITMAP
02
04
08
08
10
20
20
40
80
80
ENDCHAR
STARTCHAR 20AC
ENCODING 8364
SWIDTH 470 0
DWIDTH 8 0
BBX 8 10 0 0
BITMAP
1E
23
60
FC
40
F8
60
60
23
1C
ENDCHAR
STARTCHAR 2122
ENCODING 8482
SWIDTH 588 0
DWIDTH 10 0
BBX 8 3 1 7
BITMAP
F1
DB
F5
ENDCHAR
STARTCHAR 2126
ENCODING 8486
SWIDTH 647 0
DWIDTH 11 0
BBX 9 10 1 0
BITMAP
3E00
4100
8080
8080
8080
8080
8100
4100
A280
E380
ENDCHAR
STARTCHAR 2202
ENCODING 8706
SWIDTH 529 0
DWIDTH 9 0
BBX 7 12 1 0
BITMAP
3C
44
02
02
3A
46
82
82
82
84
44
38
ENDCHAR
STARTCHAR 2205
ENCODING 8709
SWIDTH 647 0
DWIDTH 11 0
BBX 9 12 1 -1
BITMAP
0080
1D00
6300
4300
8480
8880
9080
9080
A100
4300
7C00
8000
ENDCHAR
STARTCHAR 2206
ENCODING 8710
SWIDTH 588 0
DWIDTH 10 0
BBX 9 10 0 0
BITMAP
0800
0C00
1400
1400
1200
2200
2300
4100
4180
FF80
ENDCHAR
STARTCHAR 220F
ENCODING 8719
SWIDTH 647 0
DWIDTH 11 0
BBX 9 10 1 0
BITMAP
FF80
4100
4100
4100
4100
4100
4100
4100
4100
E380
ENDCHAR
STARTCHAR 2211
ENCODING 8721
SWIDTH 529 0
DWIDTH 9 0
BBX 8 10 0 0
BITMAP
7F
21
31
10
08
08
10
21
61
FF
ENDCHAR
STARTCHAR 2212
ENCODING 8722
SWIDTH 411 0
DWIDTH 7 0
BBX 5 1 1 4
BITMAP
F8
ENDCHAR
STARTCHAR 2219
ENCODING 8729
SWIDTH 117 0
DWIDTH 2 0
BBX 1 2 1 5
BITMAP
80
80
ENDCHAR
STARTCHAR 221A
ENCODING 8730
SWIDTH 588 0
DWIDTH 10 0
BBX 10 12 0 0
BITMAP
00C0
0080
0100
0100
E100
2100
3200
1200
1A00
0C00
0C00
0400
ENDCHAR
STARTCHAR 221E
ENCODING 8734
SWIDTH 647 0
DWIDTH 11 0
BBX 9 4 1 3
BITMAP
7380
9C80
8C80
F700
ENDCHAR
STARTCHAR 222B
ENCODING 8747
SWIDTH 294 0
DWIDTH 5 0
BBX 7 17 -1 -4
BITMAP
0E
12
10
10
10
10
10
10
10
10
10
10
10
10
10
10
E0
ENDCHAR
STARTCHAR 2248
ENCODING 8776
SWIDTH 411 0
DWIDTH 7 0
BBX 7 4 0 3
BITMAP
72
8C
02
FC
ENDCHAR
STARTCHAR 2260
ENCODING 8800
SWIDTH 411 0
DWIDTH 7 0
BBX 6 7 1 1
BITMAP
0C
18
FC
20
FC
40
80
ENDCHAR
STARTCHAR 2264
ENCODING 8804
SWIDTH 411 0
DWIDTH 7 0
BBX 6 6 1 2
BITMAP
0C
30
C0
E0
1C
FC
ENDCHAR
STARTCHAR 2265
ENCODING 8805
SWIDTH 411 0
DWIDTH 7 0
BBX 6 6 1 2
BITMAP
C0
70
0C
38
C0
FC
ENDCHAR
STARTCHAR 25CA
ENCODING 9674
SWIDTH 352 0
DWIDTH 6 0
BBX 6 10 0 0
BITMAP
20
30
50
48
88
8C
48
50
30
20
ENDCHAR
STARTCHAR 25CC
ENCODING 9676
SWIDTH 529 0
DWIDTH 9 0
BBX 7 8 1 0
BITMAP
10
28
44
82
82
82
44
38
ENDCHAR
STARTCHAR 2C60
ENCODING 11360
SWIDTH 470 0
DWIDTH 8 0
BBX 7 10 1 0
BITMAP
E0
40
40
40
F0
F0
40
40
42
FE
ENDCHAR
STARTCHAR 2C61
ENCODING 11361
SWIDTH 294 0
DWIDTH 5 0
BBX 5 13 0 0
BITMAP
20
60
20
20
20
78
A0
78
A0
20
20
20
70
ENDCHAR
STARTCHAR 2C62
ENCODING 11362
SWIDTH 470 0
DWIDTH 8 0
BBX 8 10 0 0
BITMAP
70
20
20
20
68
B0
20
20
21
7F
ENDCHAR
STARTCHAR A789
ENCODING 42889
SWIDTH 235 0
DWIDTH 4 0
BBX 1 6 1 1
BITMAP
80
80
00
00
80
80
ENDCHAR
STARTCHAR A78A
ENCODING 42890
SWIDTH 352 0
DWIDTH 6 0
BBX 4 3 1 2
BITMAP
F0
00
F0
ENDCHAR
STARTCHAR A78B
ENCODING 42891
SWIDTH 235 0
DWIDTH 4 0
BBX 2 7 1 6
BITMAP
C0
C0
C0
C0
C0
40
40
ENDCHAR
STARTCHAR A78C
ENCODING 42892
SWIDTH 235 0
DWIDTH 4 0
BBX 2 7 1 5
BITMAP
C0
C0
C0
C0
40
40
40
ENDCHAR
STARTCHAR F130
ENCODING 61744
SWIDTH 176 0
DWIDTH 3 0
BBX 3 2 0 -2
BITMAP
E0
20
ENDCHAR
STARTCHAR F131
ENCODING 61745
SWIDTH 176 0
DWIDTH 3 0
BBX 2 2 0 -2
BITMAP
C0
80
ENDCHAR
STARTCHAR F195
ENCODING 61845
SWIDTH 176 0
DWIDTH 3 0
BBX 3 3 0 9
BITMAP
C0
40
20
ENDCHAR
STARTCHAR F197
ENCODING 61847
SWIDTH 176 0
DWIDTH 3 0
BBX 3 3 0 9
BITMAP
20
40
80
ENDCHAR
STARTCHAR F1C8
ENCODING 61896
SWIDTH 352 0
DWIDTH 6 0
BBX 5 6 0 7
BITMAP
70
88
08
10
20
20
ENDCHAR
STARTCHAR F1E9
ENCODING 61929
SWIDTH 235 0
DWIDTH 4 0
BBX 1 6 1 1
BITMAP
80
80
00
00
80
80
ENDCHAR
STARTCHAR F1EA
ENCODING 61930
SWIDTH 352 0
DWIDTH 6 0
BBX 4 3 1 2
BITMAP
F0
00
F0
ENDCHAR
STARTCHAR F20E
ENCODING 61966
SWIDTH 294 0
DWIDTH 5 0
BBX 5 13 0 0
BITMAP
20
60
20
20
20
78
A0
78
A0
20
20
20
70
ENDCHAR
STARTCHAR F20F
ENCODING 61967
SWIDTH 470 0
DWIDTH 8 0
BBX 7 10 1 0
BITMAP
E0
40
40
40
F0
F0
40
40
42
FE
ENDCHAR
STARTCHAR F211
ENCODING 61969
SWIDTH 529 0
DWIDTH 9 0
BBX 10 12 1 -4
BITMAP
3C00
4400
8400
8400
8400
8400
4C00
7400
0400
0440
0440
0380
ENDCHAR
STARTCHAR F212
ENCODING 61970
SWIDTH 588 0
DWIDTH 10 0
BBX 11 14 1 -4
BITMAP
1D00
2300
4100
8100
8100
8100
8100
8100
4700
3D00
0100
0120
0120
01C0
ENDCHAR
STARTCHAR F218
ENCODING 61976
SWIDTH 647 0
DWIDTH 11 0
BBX 9 10 1 0
BITMAP
E380
4100
4100
4100
FF80
4100
4100
4100
2200
3C00
ENDCHAR
STARTCHAR F219
ENCODING 61977
SWIDTH 647 0
DWIDTH 11 0
BBX 11 10 0 0
BITMAP
0400
0C00
0A00
0A00
1300
1100
2100
2180
2080
F1E0
ENDCHAR
STARTCHAR F21D
ENCODING 61981
SWIDTH 235 0
DWIDTH 4 0
BBX 2 7 1 5
BITMAP
C0
C0
C0
C0
40
40
40
ENDCHAR
STARTCHAR F21E
ENCODING 61982
SWIDTH 411 0
DWIDTH 7 0
BBX 5 8 1 0
BITMAP
70
88
88
10
20
20
20
70
ENDCHAR
STARTCHAR F21F
ENCODING 61983
SWIDTH 470 0
DWIDTH 8 0
BBX 7 10 1 0
BITMAP
E0
40
40
40
40
F0
40
40
42
FE
ENDCHAR
STARTCHAR F242
ENCODING 62018
SWIDTH 470 0
DWIDTH 8 0
BBX 8 10 0 0
BITMAP
70
20
20
20
68
B0
20
20
21
7F
ENDCHAR
STARTCHAR F26A
ENCODING 62058
SWIDTH 235 0
DWIDTH 4 0
BBX 2 7 1 6
BITMAP
C0
C0
C0
C0
C0
40
40
ENDCHAR
STARTCHAR FB01
ENCODING 64257
SWIDTH 588 0
DWIDTH 10 0
BBX 8 13 1 0
BITMAP
1C
28
42
42
40
F2
46
42
42
42
42
42
F7
ENDCHAR
STARTCHAR FB02
ENCODING 64258
SWIDTH 588 0
DWIDTH 10 0
BBX 8 13 1 0
BITMAP
1E
2A
42
42
42
F2
42
42
42
42
42
42
F7
ENDCHAR
ENDFONT
